<svg width="18" height="19" viewBox="0 0 18 19" fill="none" xmlns="http://www.w3.org/2000/svg">
<g clip-path="url(#clip0_936_4366)">
<path d="M0.987061 3.8103V8.07754H5.2543" stroke="white" stroke-width="1.42241" stroke-linecap="round" stroke-linejoin="round"/>
<path d="M16.6336 15.1896V10.9224H12.3663" stroke="white" stroke-width="1.42241" stroke-linecap="round" stroke-linejoin="round"/>
<path d="M14.8485 7.36657C14.4878 6.34726 13.8747 5.43593 13.0666 4.71762C12.2584 3.99932 11.2814 3.49744 10.2269 3.25882C9.17226 3.02021 8.07441 3.05263 7.03574 3.35307C5.99707 3.65351 5.05143 4.21217 4.28706 4.97692L0.987061 8.07778M16.6336 10.9226L13.3336 14.0235C12.5692 14.7882 11.6236 15.3469 10.5849 15.6473C9.54626 15.9478 8.44841 15.9802 7.39382 15.7416C6.33922 15.5029 5.36226 15.0011 4.55409 14.2828C3.74593 13.5645 3.13289 12.6531 2.77219 11.6338" stroke="white" stroke-width="1.42241" stroke-linecap="round" stroke-linejoin="round"/>
</g>
<defs>
<clipPath id="clip0_936_4366">
<rect width="17.069" height="17.069" fill="white" transform="translate(0.275879 0.965515)"/>
</clipPath>
</defs>
</svg>
