<svg width="31" height="31" viewBox="0 0 31 31" fill="none" xmlns="http://www.w3.org/2000/svg">
<path d="M16.0333 1.9573C16.1915 2.0292 16.2937 2.08538 16.3924 2.22947C16.4635 2.42106 16.4599 2.60437 16.4586 2.80593C16.4588 2.85046 16.459 2.89499 16.4592 2.94087C16.4597 3.09094 16.4593 3.24099 16.459 3.39106C16.4591 3.49939 16.4594 3.60773 16.4597 3.71606C16.4603 4.01443 16.4601 4.3128 16.4599 4.61117C16.4597 4.93269 16.4603 5.25421 16.4607 5.57573C16.4614 6.20587 16.4615 6.83601 16.4614 7.46615C16.4613 7.97816 16.4614 8.49016 16.4617 9.00217C16.4617 9.11134 16.4617 9.11134 16.4618 9.22272C16.4618 9.37055 16.4619 9.51839 16.462 9.66622C16.4624 10.6593 16.4627 11.6524 16.4624 12.6455C16.4624 12.6843 16.4624 12.7232 16.4624 12.7632C16.4624 12.9601 16.4623 13.157 16.4623 13.3539C16.4622 13.393 16.4622 13.4321 16.4622 13.4724C16.4622 13.5515 16.4622 13.6306 16.4622 13.7097C16.4618 14.9405 16.4623 16.1712 16.4634 17.402C16.4646 18.7843 16.4652 20.1665 16.465 21.5487C16.4649 22.2808 16.465 23.0129 16.4659 23.7449C16.4666 24.3681 16.4666 24.9913 16.4659 25.6145C16.4656 25.9327 16.4655 26.2508 16.4662 26.5689C16.4669 26.8599 16.4667 27.1509 16.4659 27.4419C16.4657 27.5474 16.4659 27.6529 16.4663 27.7584C16.4669 27.9014 16.4664 28.0444 16.4657 28.1874C16.4661 28.2287 16.4665 28.27 16.467 28.3126C16.4641 28.5659 16.4208 28.7234 16.2678 28.9261C16.0793 29.0627 15.9096 29.0753 15.6815 29.0434C15.3457 28.8249 15.3457 28.8249 15.2857 28.5443C15.2838 28.4633 15.2839 28.3822 15.2855 28.3011C15.285 28.2562 15.2845 28.2112 15.2839 28.1648C15.2827 28.0135 15.2839 27.8623 15.2851 27.7109C15.2847 27.6016 15.2841 27.4922 15.2834 27.3829C15.282 27.082 15.2827 26.7811 15.2838 26.4802C15.2846 26.1558 15.2833 25.8315 15.2824 25.5071C15.2808 24.8715 15.2811 24.2359 15.2822 23.6004C15.283 23.0839 15.2831 22.5675 15.2827 22.0511C15.2826 21.9777 15.2826 21.9042 15.2825 21.8286C15.2824 21.6795 15.2823 21.5303 15.2822 21.3812C15.2812 20.0217 15.2822 18.6621 15.2841 17.3026C15.2857 16.0612 15.2856 14.8198 15.2839 13.5784C15.282 12.1841 15.2813 10.7898 15.2824 9.39543C15.2825 9.24682 15.2826 9.09822 15.2827 8.94962C15.2827 8.8765 15.2828 8.80338 15.2828 8.72804C15.2832 8.21207 15.2826 7.69611 15.2818 7.18014C15.2808 6.55158 15.2811 5.92303 15.283 5.29448C15.2839 4.9736 15.2843 4.65275 15.2831 4.33188C15.282 4.03836 15.2826 3.7449 15.2845 3.45139C15.2849 3.34499 15.2847 3.23858 15.2838 3.13218C15.2828 2.98791 15.2839 2.84381 15.2855 2.69955C15.2847 2.65789 15.2838 2.61623 15.283 2.57331C15.2867 2.41152 15.3005 2.28624 15.4047 2.15869C15.6152 1.9742 15.7561 1.91012 16.0333 1.9573Z" fill="white"/>
<path d="M23.4535 6.56999C23.5199 6.56744 23.5199 6.56744 23.5876 6.56484C23.8006 6.5624 23.9212 6.56755 24.0927 6.69939C24.238 6.89859 24.2486 7.01008 24.248 7.25478C24.248 7.35336 24.248 7.35336 24.248 7.45394C24.2477 7.52515 24.2474 7.59636 24.2471 7.66973C24.247 7.74243 24.2469 7.81514 24.2468 7.89005C24.2465 8.0834 24.246 8.27674 24.2454 8.47008C24.2448 8.66736 24.2445 8.86463 24.2442 9.06191C24.2436 9.44902 24.2426 9.83613 24.2413 10.2232C24.2817 10.2227 24.322 10.2222 24.3636 10.2217C24.784 10.2165 25.2043 10.2129 25.6247 10.2104C25.7816 10.2093 25.9384 10.2076 26.0953 10.2056C26.3208 10.2027 26.5464 10.2014 26.772 10.2003C26.842 10.1991 26.912 10.1979 26.9841 10.1967C27.6033 10.1965 27.6033 10.1965 27.8763 10.4578C28.1043 11.1418 27.8337 12.0062 27.5504 12.6364C26.9869 13.7465 26.119 14.4953 24.9472 14.9174C23.7999 15.2427 22.6335 15.0854 21.5738 14.558C20.5736 13.9975 19.9256 13.0992 19.5452 12.0361C19.2244 10.891 19.4178 9.68809 19.9668 8.65312C20.5688 7.63871 21.5228 6.94651 22.6584 6.64694C22.9231 6.58055 23.1821 6.57349 23.4535 6.56999ZM21.6031 8.46441C21.5664 8.49638 21.5296 8.52834 21.4918 8.56128C20.9402 9.07317 20.5846 9.8314 20.5359 10.5826C20.5231 11.5157 20.7726 12.3515 21.4272 13.0374C22.2033 13.7337 23.0308 13.9687 24.0494 13.9273C24.827 13.866 25.5356 13.4205 26.0588 12.8615C26.3462 12.5058 26.5207 12.1997 26.6518 11.7636C26.6726 11.6948 26.6934 11.626 26.7148 11.5551C26.7305 11.5025 26.7462 11.45 26.7623 11.3958C26.7217 11.3953 26.6811 11.3949 26.6393 11.3944C26.217 11.3893 25.7948 11.3835 25.3725 11.3772C25.2149 11.3749 25.0572 11.3729 24.8996 11.3711C24.6731 11.3684 24.4467 11.365 24.2203 11.3615C24.1144 11.3604 24.1144 11.3604 24.0063 11.3594C23.9406 11.3582 23.8749 11.3571 23.8072 11.3559C23.7205 11.3547 23.7205 11.3547 23.632 11.3535C23.4709 11.3363 23.3776 11.312 23.2447 11.2199C23.1193 11.0384 23.1117 10.8799 23.1087 10.6628C23.1076 10.5982 23.1064 10.5337 23.1052 10.4672C23.1045 10.3979 23.1038 10.3286 23.1031 10.2571C23.102 10.1859 23.1009 10.1147 23.0997 10.0413C23.0962 9.81367 23.0935 9.58608 23.0908 9.35848C23.0885 9.2042 23.0862 9.04992 23.0839 8.89564C23.0783 8.51739 23.0733 8.13914 23.0688 7.76087C22.5038 7.76087 22.0116 8.09931 21.6031 8.46441Z" fill="white"/>
<path d="M3.14675 25.3997C3.22303 25.3993 3.29932 25.399 3.37791 25.3986C3.46263 25.3986 3.54736 25.3985 3.63209 25.3984C3.72117 25.3982 3.81025 25.3979 3.89933 25.3976C4.14147 25.3968 4.38362 25.3964 4.62576 25.3962C4.77701 25.396 4.92827 25.3957 5.07952 25.3955C5.55267 25.3947 6.02582 25.3941 6.49898 25.3939C7.04533 25.3936 7.59167 25.3926 8.13802 25.3909C8.56024 25.3896 8.98247 25.389 9.40469 25.389C9.65692 25.3889 9.90914 25.3886 10.1614 25.3875C10.3986 25.3865 10.6358 25.3864 10.8731 25.3869C10.9601 25.387 11.0472 25.3867 11.1342 25.3861C11.2531 25.3854 11.372 25.3858 11.4909 25.3863C11.5574 25.3863 11.6239 25.3862 11.6924 25.3861C11.9426 25.4168 12.0963 25.5132 12.2679 25.6945C12.3519 25.8409 12.3612 25.9305 12.3617 26.0986C12.3622 26.154 12.3628 26.2093 12.3634 26.2664C12.3628 26.3555 12.3628 26.3555 12.3623 26.4465C12.3625 26.5386 12.3625 26.5386 12.3628 26.6326C12.3629 26.7625 12.3626 26.8924 12.3619 27.0222C12.3609 27.2208 12.3619 27.4192 12.363 27.6178C12.3629 27.744 12.3626 27.8702 12.3623 27.9965C12.3626 28.0558 12.363 28.1151 12.3634 28.1762C12.3581 28.7054 12.3581 28.7054 12.1631 28.9256C11.961 29.0564 11.7904 29.0577 11.5529 29.0581C11.4755 29.0585 11.3982 29.0589 11.3185 29.0594C11.2329 29.0592 11.1472 29.0591 11.0616 29.0589C10.9714 29.0592 10.8811 29.0595 10.7909 29.0598C10.5458 29.0606 10.3008 29.0607 10.0557 29.0605C9.85118 29.0604 9.64662 29.0607 9.44206 29.061C8.95948 29.0617 8.47691 29.0617 7.99433 29.0613C7.49645 29.061 6.99858 29.0617 6.5007 29.0629C6.07325 29.064 5.64579 29.0643 5.21834 29.0641C4.96303 29.064 4.70774 29.0642 4.45243 29.065C4.21235 29.0657 3.97229 29.0656 3.73221 29.0649C3.64412 29.0647 3.55604 29.0649 3.46795 29.0654C3.34764 29.066 3.22738 29.0655 3.10707 29.0648C3.03977 29.0648 2.97247 29.0648 2.90312 29.0648C2.70258 29.0402 2.59265 28.9857 2.43082 28.8669C2.31444 28.6969 2.29822 28.5565 2.2956 28.3531C2.29466 28.2979 2.29373 28.2427 2.29276 28.1858C2.29244 28.1266 2.29213 28.0673 2.29181 28.0063C2.29128 27.945 2.29075 27.8837 2.2902 27.8206C2.28935 27.6909 2.28883 27.5613 2.28861 27.4317C2.28792 27.2338 2.28503 27.036 2.28207 26.8381C2.28152 26.7121 2.28109 26.586 2.28081 26.46C2.27967 26.401 2.27852 26.342 2.27734 26.2812C2.27905 26.015 2.28187 25.8199 2.45119 25.606C2.68151 25.3994 2.84775 25.4004 3.14675 25.3997ZM3.48612 26.5804C3.48612 27.0254 3.48612 27.4704 3.48612 27.9289C6.02061 27.9289 8.55509 27.9289 11.1664 27.9289C11.1664 27.4839 11.1664 27.0389 11.1664 26.5804C8.63189 26.5804 6.09741 26.5804 3.48612 26.5804Z" fill="white"/>
<path d="M20.2075 25.3997C20.2837 25.3993 20.3599 25.399 20.4384 25.3986C20.523 25.3986 20.6077 25.3985 20.6923 25.3984C20.7813 25.3982 20.8703 25.3979 20.9593 25.3976C21.2012 25.3968 21.4431 25.3964 21.685 25.3962C21.8361 25.396 21.9873 25.3957 22.1384 25.3955C22.6113 25.3947 23.0841 25.3941 23.557 25.3939C24.1029 25.3936 24.6487 25.3926 25.1946 25.3909C25.6165 25.3896 26.0384 25.389 26.4603 25.389C26.7123 25.3889 26.9643 25.3886 27.2163 25.3875C27.4534 25.3865 27.6905 25.3864 27.9276 25.3869C28.0145 25.387 28.1014 25.3867 28.1884 25.3861C28.3072 25.3854 28.4261 25.3858 28.545 25.3863C28.6447 25.3862 28.6447 25.3862 28.7464 25.3861C28.9587 25.4112 29.1 25.4747 29.2828 25.5838C29.4037 25.7519 29.4151 25.8947 29.4162 26.0986C29.4168 26.154 29.4173 26.2093 29.4179 26.2664C29.4178 26.3555 29.4178 26.3555 29.4177 26.4465C29.418 26.5079 29.4182 26.5693 29.4185 26.6326C29.4188 26.7625 29.4189 26.8924 29.4186 27.0222C29.4184 27.2207 29.4198 27.4192 29.4213 27.6178C29.4214 27.744 29.4214 27.8702 29.4214 27.9965C29.4219 28.0558 29.4225 28.1151 29.423 28.1762C29.4195 28.7054 29.4195 28.7054 29.2242 28.9256C29.0222 29.0563 28.8515 29.0578 28.614 29.0585C28.5367 29.059 28.4593 29.0595 28.3796 29.06C28.294 29.06 28.2084 29.0599 28.1228 29.0599C28.0325 29.0602 27.9423 29.0606 27.852 29.061C27.607 29.0621 27.3619 29.0624 27.1169 29.0624C26.9123 29.0625 26.7078 29.063 26.5032 29.0634C26.0206 29.0643 25.5381 29.0646 25.0555 29.0646C24.5576 29.0645 24.0597 29.0657 23.5619 29.0676C23.1344 29.0691 22.707 29.0697 22.2795 29.0697C22.0242 29.0696 21.7689 29.07 21.5136 29.0712C21.2735 29.0723 21.0334 29.0723 20.7934 29.0715C20.7053 29.0714 20.6172 29.0716 20.5291 29.0724C20.4088 29.0733 20.2886 29.0727 20.1682 29.0718C20.1009 29.0719 20.0336 29.0719 19.9643 29.072C19.7461 29.0365 19.6489 28.9609 19.492 28.8083C19.4208 28.6659 19.4248 28.5725 19.423 28.4133C19.4218 28.3267 19.4218 28.3267 19.4207 28.2384C19.4203 28.1758 19.4198 28.1132 19.4194 28.0487C19.4189 27.9845 19.4184 27.9203 19.4179 27.8541C19.4171 27.718 19.4165 27.582 19.416 27.4459C19.415 27.2378 19.4125 27.0298 19.4099 26.8217C19.4093 26.6896 19.4088 26.5575 19.4084 26.4254C19.4074 26.3632 19.4063 26.3009 19.4053 26.2368C19.4065 25.8055 19.4065 25.8055 19.5412 25.5751C19.7542 25.3925 19.937 25.4004 20.2075 25.3997ZM20.5473 26.5805C20.5473 27.0254 20.5473 27.4704 20.5473 27.9289C23.1011 27.9289 25.6549 27.9289 28.2862 27.9289C28.2862 27.4839 28.2862 27.0389 28.2862 26.5805C25.7323 26.5805 23.1785 26.5805 20.5473 26.5805Z" fill="white"/>
<path d="M6.89059 6.15568C6.96019 6.1528 7.0298 6.14993 7.10151 6.14697C7.29586 6.17743 7.39639 6.21222 7.53104 6.35651C7.65918 6.603 7.61848 6.89544 7.60902 7.16622C7.60505 7.28723 7.60336 7.40807 7.60233 7.52913C7.59915 7.87312 7.5934 8.21696 7.58264 8.56079C7.52294 9.83255 7.52294 9.83255 8.1093 10.9215C8.17506 10.9884 8.24186 11.0543 8.30973 11.1191C8.48838 11.2961 8.64009 11.4954 8.796 11.6923C8.85851 11.7695 8.9211 11.8466 8.98379 11.9237C9.01474 11.9619 9.04568 12.0002 9.07757 12.0396C9.14315 12.1204 9.20905 12.201 9.27521 12.2813C9.37572 12.404 9.47441 12.528 9.57282 12.6524C9.60343 12.6891 9.63404 12.7258 9.66558 12.7636C9.85634 13.009 9.919 13.1955 9.89869 13.5082C9.85679 13.7302 9.73564 13.8043 9.5632 13.9346C8.51267 14.6055 7.33486 14.8697 6.10223 14.6152C4.95544 14.339 4.05213 13.6574 3.41689 12.6707C2.78032 11.5914 2.64752 10.4643 2.93687 9.2483C3.2655 8.11701 4.02403 7.20301 5.0459 6.62809C5.62203 6.32139 6.24087 6.17406 6.89059 6.15568ZM4.82396 8.20399C4.19822 8.86835 3.9224 9.68072 3.9269 10.58C3.95821 11.4718 4.35574 12.1704 4.98885 12.788C5.63801 13.3451 6.37234 13.5937 7.21831 13.5799C7.67997 13.5443 8.11213 13.4117 8.52851 13.213C8.31433 12.9236 8.09523 12.6385 7.87261 12.3556C7.84514 12.3206 7.81766 12.2857 7.78936 12.2497C7.64647 12.0682 7.50311 11.887 7.35915 11.7063C7.33098 11.6708 7.3028 11.6353 7.27378 11.5987C7.22082 11.532 7.16772 11.4654 7.11441 11.399C7.06551 11.3372 7.01734 11.2749 6.97004 11.2119C6.91391 11.138 6.85606 11.0653 6.79672 10.9938C6.50435 10.6117 6.48428 10.2889 6.48798 9.81786C6.48718 9.74703 6.48637 9.67621 6.48555 9.60324C6.48337 9.37864 6.48358 9.15412 6.48386 8.92951C6.4828 8.77656 6.48158 8.62362 6.48019 8.47068C6.47716 8.09718 6.47609 7.72372 6.47653 7.35022C5.88459 7.35022 5.24037 7.82491 4.82396 8.20399Z" fill="white"/>
<path d="M9.62362 5.92333C10.6553 6.19101 11.3635 6.77172 11.9003 7.67598C12.3431 8.51114 12.4533 9.48227 12.222 10.3994C12.0725 10.8541 11.8604 11.2463 11.5771 11.6306C11.5421 11.6814 11.507 11.7322 11.4709 11.7845C11.2303 12.0457 10.9657 12.2809 10.6281 12.4001C10.3858 12.3893 10.1999 12.309 10.0294 12.1315C9.94416 12.0243 9.86425 11.9147 9.78531 11.8028C9.75552 11.7619 9.72573 11.7209 9.69503 11.6787C9.63155 11.5912 9.56841 11.5034 9.50557 11.4155C9.40686 11.2774 9.3072 11.1401 9.20727 11.0029C9.01892 10.7439 8.83211 10.4839 8.64573 10.2235C8.62186 10.1904 8.59798 10.1572 8.57339 10.123C8.5142 10.0406 8.45536 9.95805 8.39656 9.87544C8.36603 9.83259 8.33549 9.78974 8.30404 9.74559C8.18055 9.5509 8.16893 9.38632 8.16726 9.16176C8.16669 9.1007 8.16613 9.03964 8.16555 8.97672C8.1653 8.91077 8.16505 8.84481 8.1648 8.77686C8.16446 8.70897 8.16413 8.64108 8.16378 8.57114C8.16323 8.42738 8.16285 8.28362 8.16262 8.13986C8.16205 7.92022 8.16023 7.70061 8.15838 7.48097C8.158 7.34131 8.15769 7.20165 8.15747 7.06199C8.15674 6.99639 8.15602 6.93079 8.15527 6.8632C8.15621 6.53534 8.15703 6.28041 8.35259 6.00234C8.70234 5.76917 9.22116 5.85198 9.62362 5.92333ZM9.34926 7.05764C9.19237 8.43886 9.19237 8.43886 9.59823 9.70337C9.73023 9.85375 9.86683 9.99501 10.0144 10.1301C10.1647 10.2748 10.2748 10.4369 10.3936 10.6083C10.4302 10.6592 10.4669 10.71 10.5046 10.7624C10.5297 10.7974 10.5547 10.8324 10.5804 10.8685C10.9035 10.5903 11.0871 10.2331 11.1667 9.81315C11.2239 9.02459 11.089 8.38414 10.5804 7.76117C10.2659 7.41829 9.90183 7.21667 9.46652 7.05764C9.42782 7.05764 9.38913 7.05764 9.34926 7.05764Z" fill="white"/>
<path d="M27.0111 5.83382C27.3919 6.03618 27.6936 6.28029 27.9931 6.58866C28.026 6.62032 28.0589 6.65199 28.0927 6.68461C28.6448 7.25988 28.9263 8.12 28.9568 8.90079C28.9512 9.12733 28.9387 9.21417 28.8212 9.41379C28.6251 9.58106 28.5125 9.58658 28.2586 9.58906C28.1915 9.58981 28.1243 9.59056 28.0552 9.59134C27.9459 9.59199 27.9459 9.59199 27.8344 9.59265C27.7598 9.59312 27.6852 9.5936 27.6083 9.59408C27.4501 9.5949 27.292 9.59554 27.1338 9.59598C26.9316 9.59663 26.7293 9.59865 26.5271 9.60098C26.3338 9.60288 26.1406 9.60314 25.9473 9.60364C25.8748 9.60467 25.8023 9.6057 25.7276 9.60675C25.6261 9.6065 25.6261 9.6065 25.5225 9.60623C25.4631 9.60658 25.4037 9.60692 25.3425 9.60728C25.1335 9.57074 25.0358 9.49158 24.8858 9.34417C24.8259 9.16445 24.8191 9.03987 24.8178 8.85159C24.8172 8.78681 24.8166 8.72204 24.8161 8.65531C24.8158 8.58532 24.8156 8.51533 24.8153 8.44322C24.815 8.37129 24.8146 8.29936 24.8143 8.22526C24.8137 8.07297 24.8134 7.92069 24.8131 7.7684C24.8126 7.53537 24.8107 7.30238 24.8089 7.06936C24.8085 6.92149 24.8082 6.77362 24.808 6.62576C24.8072 6.55601 24.8065 6.48626 24.8058 6.41439C24.806 6.34925 24.8061 6.28411 24.8063 6.21699C24.8061 6.15985 24.8059 6.10271 24.8057 6.04383C24.8312 5.85549 24.8929 5.74547 25.0031 5.59198C25.549 5.22913 26.4847 5.58696 27.0111 5.83382ZM25.9411 6.70591C25.9411 7.28633 25.9411 7.86674 25.9411 8.46475C26.5216 8.46475 27.102 8.46475 27.7 8.46475C27.6034 7.88544 27.2853 7.41837 26.8206 7.05768C26.4063 6.80024 26.4063 6.80024 25.9411 6.70591Z" fill="white"/>
<path d="M20.1465 19.5955C20.2236 19.5952 20.3008 19.5948 20.3803 19.5945C20.4664 19.5944 20.5524 19.5943 20.6385 19.5943C20.7287 19.594 20.8189 19.5937 20.9092 19.5934C21.1547 19.5926 21.4002 19.5922 21.6458 19.592C21.7991 19.5918 21.9525 19.5916 22.1058 19.5913C22.5854 19.5905 23.065 19.5899 23.5446 19.5897C24.0986 19.5895 24.6525 19.5884 25.2065 19.5867C25.6344 19.5855 26.0624 19.5849 26.4903 19.5848C26.746 19.5847 27.0017 19.5844 27.2574 19.5833C27.498 19.5824 27.7385 19.5822 27.9791 19.5828C28.0673 19.5828 28.1556 19.5825 28.2439 19.582C28.3645 19.5812 28.485 19.5816 28.6056 19.5822C28.7067 19.582 28.7067 19.582 28.81 19.5819C29.0478 19.6108 29.2111 19.6919 29.3632 19.8785C29.4193 20.0862 29.4237 20.2854 29.3412 20.4831C29.1761 20.6849 29.0724 20.7636 28.8119 20.8033C28.5792 20.8137 28.3474 20.8146 28.1146 20.8124C28.0249 20.8126 27.9352 20.8129 27.8456 20.8133C27.6026 20.8142 27.3596 20.8132 27.1166 20.8118C26.8621 20.8106 26.6077 20.811 26.3532 20.8111C25.9259 20.8111 25.4987 20.8099 25.0715 20.8081C24.5776 20.8059 24.0838 20.8054 23.59 20.8058C23.1147 20.8062 22.6394 20.8055 22.1641 20.8044C21.9619 20.8039 21.7597 20.8037 21.5575 20.8038C21.3195 20.8039 21.0814 20.8031 20.8434 20.8015C20.756 20.8011 20.6687 20.801 20.5814 20.8012C20.4621 20.8014 20.3429 20.8004 20.2236 20.7994C20.1235 20.7991 20.1235 20.7991 20.0214 20.7987C19.8204 20.7734 19.7118 20.7213 19.5504 20.6004C19.4063 20.3844 19.392 20.2064 19.4331 19.9555C19.6405 19.6306 19.7743 19.5965 20.1465 19.5955Z" fill="white"/>
<path d="M3.03861 19.236C3.07662 19.2357 3.11463 19.2355 3.15379 19.2352C3.28139 19.2345 3.40897 19.2345 3.53657 19.2346C3.62796 19.2343 3.71935 19.2339 3.81074 19.2335C4.05919 19.2324 4.30763 19.2321 4.55607 19.2321C4.7634 19.232 4.97072 19.2315 5.17805 19.2311C5.66718 19.2302 6.1563 19.2299 6.64543 19.2299C7.15013 19.23 7.65483 19.2288 8.15953 19.2269C8.59271 19.2254 9.02589 19.2248 9.45907 19.2248C9.71785 19.2249 9.97662 19.2245 10.2354 19.2233C10.4788 19.2222 10.7222 19.2222 10.9656 19.223C11.0549 19.2231 11.1442 19.2229 11.2335 19.2221C11.3555 19.2212 11.4774 19.2218 11.5994 19.2227C11.6677 19.2226 11.7359 19.2226 11.8062 19.2225C12.0256 19.2578 12.1232 19.3322 12.2805 19.4862C12.3448 19.6417 12.3511 19.7879 12.3391 19.9552C12.2468 20.1675 12.1815 20.2362 11.9874 20.3656C11.821 20.3807 11.821 20.3807 11.6143 20.3813C11.5763 20.3816 11.5383 20.3818 11.4991 20.3821C11.3715 20.3828 11.2439 20.3827 11.1163 20.3826C11.025 20.383 10.9336 20.3834 10.8422 20.3838C10.5937 20.3849 10.3453 20.3851 10.0968 20.3852C9.88952 20.3853 9.6822 20.3858 9.47487 20.3862C8.98574 20.3871 8.49662 20.3874 8.00749 20.3873C7.50279 20.3873 6.99809 20.3885 6.49339 20.3904C6.06021 20.3919 5.62703 20.3925 5.19385 20.3924C4.93507 20.3924 4.6763 20.3927 4.41753 20.394C4.17412 20.3951 3.93074 20.3951 3.68734 20.3943C3.59802 20.3942 3.50871 20.3944 3.4194 20.3951C3.2974 20.396 3.1755 20.3955 3.0535 20.3946C2.98526 20.3947 2.91701 20.3947 2.8467 20.3948C2.62727 20.3594 2.52971 20.2851 2.3724 20.1311C2.3081 19.9756 2.3018 19.8294 2.31377 19.6621C2.47023 19.3022 2.66281 19.2371 3.03861 19.236Z" fill="white"/>
<path d="M3.03861 16.7741C3.07662 16.7738 3.11463 16.7736 3.15379 16.7733C3.28139 16.7725 3.40897 16.7726 3.53657 16.7727C3.62796 16.7724 3.71935 16.772 3.81074 16.7715C4.05919 16.7705 4.30763 16.7702 4.55607 16.7702C4.7634 16.77 4.97072 16.7696 5.17805 16.7692C5.66718 16.7682 6.1563 16.768 6.64543 16.768C7.15013 16.7681 7.65483 16.7669 8.15953 16.765C8.59271 16.7635 9.02589 16.7629 9.45907 16.7629C9.71785 16.763 9.97662 16.7626 10.2354 16.7614C10.4788 16.7603 10.7222 16.7602 10.9656 16.7611C11.0549 16.7612 11.1442 16.7609 11.2335 16.7602C11.3555 16.7593 11.4774 16.7599 11.5994 16.7608C11.6677 16.7607 11.7359 16.7606 11.8062 16.7606C12.0256 16.7959 12.1232 16.8703 12.2805 17.0243C12.3448 17.1798 12.3511 17.326 12.3391 17.4933C12.2468 17.7056 12.1815 17.7743 11.9874 17.9037C11.821 17.9188 11.821 17.9188 11.6143 17.9194C11.5763 17.9196 11.5383 17.9199 11.4991 17.9202C11.3715 17.9209 11.2439 17.9208 11.1163 17.9207C11.025 17.9211 10.9336 17.9215 10.8422 17.9219C10.5937 17.923 10.3453 17.9232 10.0968 17.9233C9.88952 17.9234 9.6822 17.9238 9.47487 17.9243C8.98574 17.9252 8.49662 17.9255 8.00749 17.9254C7.50279 17.9254 6.99809 17.9266 6.49339 17.9284C6.06021 17.93 5.62703 17.9306 5.19385 17.9305C4.93507 17.9305 4.6763 17.9308 4.41753 17.9321C4.17412 17.9332 3.93074 17.9332 3.68734 17.9324C3.59802 17.9322 3.50871 17.9325 3.4194 17.9332C3.2974 17.9341 3.1755 17.9336 3.0535 17.9327C2.98526 17.9327 2.91701 17.9328 2.8467 17.9329C2.62727 17.8975 2.52971 17.8232 2.3724 17.6692C2.3081 17.5137 2.3018 17.3674 2.31377 17.2002C2.47023 16.8403 2.66281 16.7752 3.03861 16.7741Z" fill="white"/>
<path d="M20.2099 17.1331C20.2867 17.1327 20.3635 17.1324 20.4426 17.132C20.5278 17.132 20.6131 17.1319 20.6984 17.1318C20.7881 17.1316 20.8777 17.1313 20.9674 17.131C21.2111 17.1302 21.4548 17.1298 21.6985 17.1296C21.8508 17.1294 22.003 17.1291 22.1552 17.1289C22.6315 17.1281 23.1077 17.1275 23.5839 17.1273C24.1338 17.127 24.6837 17.126 25.2336 17.1243C25.6586 17.123 26.0835 17.1224 26.5085 17.1224C26.7623 17.1223 27.0162 17.1219 27.2701 17.1209C27.5088 17.1199 27.7476 17.1198 27.9864 17.1203C28.074 17.1204 28.1616 17.1201 28.2492 17.1195C28.3689 17.1188 28.4885 17.1192 28.6082 17.1197C28.7086 17.1196 28.7086 17.1196 28.8111 17.1195C29.0112 17.1439 29.1209 17.199 29.2826 17.3172C29.4191 17.5057 29.4318 17.6754 29.3999 17.9035C29.3092 18.0842 29.2729 18.1506 29.1067 18.2552C28.8112 18.3099 28.5163 18.3027 28.217 18.2998C28.125 18.3002 28.033 18.3007 27.941 18.3014C27.6915 18.3027 27.442 18.3019 27.1925 18.3005C26.9313 18.2994 26.6701 18.3001 26.4089 18.3005C25.9702 18.3008 25.5316 18.2998 25.0929 18.2979C24.5859 18.2957 24.0789 18.2958 23.5718 18.2971C23.084 18.2983 22.5961 18.2979 22.1082 18.2967C21.9007 18.2963 21.6931 18.2964 21.4855 18.297C21.241 18.2976 20.9966 18.2968 20.7521 18.2948C20.6625 18.2943 20.5728 18.2943 20.4831 18.2949C20.3606 18.2956 20.2382 18.2944 20.1157 18.2928C20.0471 18.2927 19.9786 18.2925 19.908 18.2923C19.672 18.2442 19.5837 18.1456 19.4331 17.9621C19.3836 17.7998 19.3965 17.6581 19.4331 17.4931C19.642 17.1546 19.8311 17.134 20.2099 17.1331Z" fill="white"/>
<path d="M6.42771 1.9415C6.47596 1.94108 6.5242 1.94066 6.5739 1.94024C6.62632 1.94038 6.67875 1.94053 6.73275 1.94068C6.78836 1.94038 6.84396 1.94008 6.90125 1.93977C7.0851 1.93895 7.26894 1.93901 7.45279 1.93915C7.58057 1.93892 7.70835 1.93866 7.83613 1.93838C8.10399 1.93795 8.37185 1.93796 8.63971 1.93827C8.98301 1.93861 9.3263 1.93762 9.6696 1.93626C9.9335 1.9354 10.1974 1.93534 10.4613 1.93553C10.5879 1.9355 10.7144 1.93519 10.841 1.9346C11.018 1.93388 11.1949 1.93427 11.3719 1.93495C11.4242 1.9345 11.4765 1.93406 11.5304 1.93359C11.8094 1.93596 11.9953 1.95135 12.222 2.13266C12.3586 2.32118 12.3712 2.49089 12.3393 2.71894C12.1411 3.04515 12.1411 3.04515 11.9245 3.10345C11.7716 3.11661 11.6221 3.11824 11.4686 3.11623C11.4107 3.11684 11.3528 3.11746 11.2931 3.11809C11.1019 3.11964 10.9109 3.11862 10.7197 3.11743C10.5867 3.11767 10.4538 3.11801 10.3208 3.11845C10.0423 3.11897 9.76375 3.11821 9.48519 3.11657C9.12813 3.11457 8.77116 3.11572 8.4141 3.11783C8.13958 3.1191 7.86508 3.11869 7.59056 3.11778C7.45892 3.11755 7.32727 3.11784 7.19562 3.11865C7.01159 3.11955 6.8277 3.11819 6.64368 3.11623C6.56208 3.1173 6.56208 3.1173 6.47882 3.11838C6.12004 3.11131 6.12004 3.11131 5.96644 2.99568C5.83656 2.8477 5.77542 2.73396 5.74365 2.53939C5.77705 2.34321 5.82682 2.23094 5.94885 2.07404C6.11331 1.97402 6.23637 1.94205 6.42771 1.9415Z" fill="white"/>
<path d="M20.3215 1.94766C20.3771 1.94737 20.4327 1.94708 20.49 1.94678C20.6744 1.94592 20.8589 1.94552 21.0434 1.9452C21.1714 1.94486 21.2993 1.94452 21.4273 1.94418C21.6958 1.94357 21.9644 1.94322 22.2329 1.94302C22.5772 1.9427 22.9214 1.94129 23.2656 1.93962C23.53 1.93853 23.7944 1.93822 24.0588 1.93813C24.1857 1.93796 24.3126 1.93749 24.4395 1.93672C24.6171 1.93572 24.7946 1.93583 24.9721 1.93621C25.0246 1.93567 25.0771 1.93513 25.1312 1.93457C25.4098 1.93644 25.5997 1.94885 25.8241 2.13299C25.9479 2.31873 25.9608 2.43388 25.9741 2.65285C25.9198 2.86009 25.8156 2.94002 25.6482 3.07104C25.4576 3.1143 25.2709 3.11111 25.076 3.10897C24.99 3.10974 24.99 3.10974 24.9023 3.11052C24.713 3.11181 24.5239 3.11096 24.3346 3.10997C24.203 3.11017 24.0713 3.11045 23.9397 3.11082C23.6639 3.11125 23.3881 3.11062 23.1123 3.10925C22.7588 3.10758 22.4054 3.10854 22.0519 3.1103C21.7801 3.11136 21.5083 3.11102 21.2365 3.11026C21.1061 3.11007 20.9758 3.11031 20.8455 3.11099C20.6633 3.11173 20.4812 3.1106 20.299 3.10897C20.2451 3.10956 20.1913 3.11015 20.1358 3.11076C19.8708 3.10637 19.7616 3.09834 19.5468 2.92965C19.4049 2.73927 19.394 2.65052 19.4082 2.42224C19.4482 2.24402 19.5393 2.14079 19.6682 2.01573C19.8693 1.9152 20.1002 1.94793 20.3215 1.94766Z" fill="white"/>
<path d="M20.3393 22.0501C20.3822 22.0498 20.4251 22.0495 20.4694 22.0491C20.6108 22.0483 20.7521 22.0484 20.8935 22.0485C20.9921 22.0483 21.0908 22.048 21.1894 22.0478C21.3959 22.0473 21.6025 22.0473 21.809 22.0476C22.0733 22.048 22.3375 22.047 22.6017 22.0456C22.8054 22.0448 23.009 22.0447 23.2127 22.0449C23.3101 22.0449 23.4075 22.0446 23.5049 22.044C23.6412 22.0432 23.7776 22.0436 23.914 22.0443C23.9539 22.0439 23.9938 22.0434 24.035 22.043C24.3015 22.0459 24.4829 22.1038 24.71 22.242C24.8503 22.4269 24.8504 22.6016 24.8273 22.8283C24.7502 23.0069 24.6989 23.0966 24.5255 23.1873C24.3219 23.2499 24.1323 23.2556 23.9215 23.2548C23.8571 23.2553 23.8571 23.2553 23.7914 23.2557C23.6501 23.2565 23.5087 23.2565 23.3673 23.2563C23.2687 23.2566 23.17 23.2568 23.0714 23.2571C22.8649 23.2575 22.6583 23.2575 22.4518 23.2572C22.1876 23.2569 21.9233 23.2579 21.6591 23.2592C21.4555 23.2601 21.2518 23.2601 21.0482 23.26C20.9508 23.26 20.8534 23.2603 20.756 23.2609C20.6196 23.2616 20.4832 23.2612 20.3468 23.2605C20.3069 23.261 20.267 23.2614 20.2258 23.2619C19.9593 23.259 19.7779 23.2011 19.5508 23.0628C19.4105 22.878 19.4104 22.7033 19.4335 22.4766C19.5106 22.298 19.5619 22.2083 19.7353 22.1175C19.9389 22.055 20.1285 22.0493 20.3393 22.0501Z" fill="white"/>
<path d="M7.68998 21.6975C7.75879 21.6969 7.75879 21.6969 7.82899 21.6963C7.9808 21.6952 8.1326 21.695 8.28441 21.6949C8.38993 21.6945 8.49545 21.6941 8.60097 21.6937C8.82225 21.693 9.04354 21.6928 9.26483 21.6928C9.54827 21.6928 9.83167 21.6912 10.1151 21.6892C10.3331 21.6879 10.5511 21.6877 10.769 21.6877C10.8735 21.6876 10.978 21.6871 11.0825 21.6862C11.2288 21.685 11.3749 21.6854 11.5212 21.6861C11.5642 21.6854 11.6073 21.6848 11.6517 21.6841C11.9361 21.6876 12.0812 21.7467 12.2807 21.9491C12.3514 22.0903 12.344 22.1664 12.332 22.3228C12.3295 22.368 12.3269 22.4132 12.3242 22.4598C12.26 22.658 12.1619 22.7168 11.9876 22.8285C11.8249 22.8515 11.6855 22.8612 11.523 22.8598C11.4771 22.8603 11.4313 22.8608 11.384 22.8613C11.2328 22.8626 11.0817 22.8622 10.9305 22.8617C10.8251 22.862 10.7198 22.8624 10.6144 22.8628C10.3938 22.8634 10.1732 22.8631 9.95265 22.8623C9.67012 22.8613 9.38766 22.8627 9.10514 22.8647C8.88766 22.866 8.67019 22.8659 8.45271 22.8654C8.34855 22.8654 8.24439 22.8658 8.14023 22.8667C7.99454 22.8677 7.84897 22.8668 7.70329 22.8655C7.63895 22.8665 7.63895 22.8665 7.57332 22.8676C7.34362 22.8633 7.24719 22.8354 7.06679 22.6883C6.93595 22.5232 6.88696 22.4519 6.88696 22.2422C7.04665 21.7711 7.21773 21.697 7.68998 21.6975Z" fill="white"/>
<path d="M3.48336 1.93809C3.55255 1.93715 3.62174 1.9362 3.69303 1.93523C3.7598 1.93519 3.82657 1.93515 3.89536 1.93511C3.9562 1.93494 4.01703 1.93476 4.07971 1.93458C4.27603 1.95987 4.38401 2.01504 4.54233 2.1323C4.66616 2.31804 4.67903 2.43319 4.69234 2.65216C4.63984 2.85261 4.52335 2.93969 4.36645 3.07034C4.11466 3.12182 3.86561 3.11497 3.60898 3.11178C3.48727 3.11065 3.36595 3.11296 3.24427 3.11557C2.67743 3.11418 2.67743 3.11418 2.48841 2.9955C2.36258 2.85117 2.31581 2.72676 2.28516 2.53903C2.31855 2.34284 2.36832 2.23057 2.49035 2.07367C2.78689 1.88254 3.14369 1.93717 3.48336 1.93809Z" fill="white"/>
<path d="M28.2243 1.93813C28.2935 1.93719 28.3627 1.93624 28.434 1.93527C28.5007 1.93523 28.5675 1.9352 28.6363 1.93516C28.6971 1.93498 28.758 1.93481 28.8206 1.93463C29.0153 1.9597 29.1251 2.01823 29.2833 2.13234C29.4198 2.32088 29.4195 2.49048 29.4005 2.71862C29.3298 2.91459 29.2879 2.95002 29.1074 3.07039C28.8573 3.09436 28.6067 3.09217 28.3555 3.09211C28.2322 3.09237 28.1091 3.0945 27.9858 3.09672C27.9072 3.09707 27.8286 3.0973 27.75 3.09741C27.6787 3.09789 27.6073 3.09837 27.5338 3.09887C27.3146 3.06517 27.2477 3.00896 27.114 2.83587C27.0316 2.60934 27.0335 2.41999 27.125 2.1983C27.4122 1.86165 27.8165 1.93702 28.2243 1.93813Z" fill="white"/>
</svg>
