<svg width="32" height="32" viewBox="0 0 32 32" fill="none" xmlns="http://www.w3.org/2000/svg">
<rect width="32" height="32" rx="7.2" fill="#FFFAED"/>
<g clip-path="url(#clip0_292_14804)">
<path d="M16 4.00008C16.1894 3.96602 16.2674 3.99132 16.4308 4.09475C16.4841 4.13768 16.5367 4.18137 16.5888 4.22567C16.6173 4.24893 16.6458 4.2722 16.6751 4.29616C16.7632 4.36858 16.8505 4.44196 16.9375 4.51571C16.9636 4.53773 16.9897 4.55974 17.0166 4.58243C17.1168 4.66713 17.217 4.75198 17.3167 4.83733C17.5049 4.99786 17.6975 5.15172 17.8926 5.30379C17.9474 5.34682 18.0023 5.38985 18.0572 5.43288C18.1419 5.49912 18.2269 5.56507 18.3124 5.63027C18.5122 5.78883 18.6067 5.91329 18.6719 6.15633C18.588 6.68056 17.8466 7.1296 17.4546 7.44558C17.2532 7.61138 17.0573 7.78332 16.862 7.95613C16.3632 8.39359 16.3632 8.39359 16.1494 8.42684C16.0469 8.40633 16.0469 8.40633 15.9531 8.31258C15.9425 8.19437 15.9425 8.19437 15.9439 8.04708C15.9444 7.96823 15.9444 7.96823 15.9449 7.88778C15.946 7.80512 15.946 7.80512 15.9472 7.72079C15.9477 7.66532 15.9481 7.60985 15.9485 7.5527C15.9496 7.41536 15.9512 7.27804 15.9531 7.14071C14.8983 7.19864 13.8555 7.33721 12.8594 7.70321C12.8232 7.71643 12.7871 7.72966 12.7498 7.74328C11.4421 8.22899 10.356 8.9496 9.34373 9.90633C9.28345 9.9628 9.28345 9.9628 9.22196 10.0204C8.8996 10.3315 8.62415 10.6711 8.35935 11.0313C8.33978 11.0579 8.32021 11.0846 8.30005 11.112C7.35043 12.4244 6.73424 14.011 6.5781 15.6251C6.57297 15.678 6.56783 15.7309 6.56254 15.7855C6.347 18.3719 7.17449 20.8315 8.82023 22.82C8.95596 22.977 9.09994 23.1225 9.24998 23.2657C9.48435 23.5001 9.48435 23.5001 9.55576 23.5781C10.6812 24.7723 12.3626 25.527 13.9375 25.8907C13.9963 25.9047 14.0552 25.9186 14.1158 25.933C16.2609 26.3888 18.5782 26.0367 20.5019 24.9909C20.8179 24.8192 21.0787 24.7458 21.4375 24.8126C21.6912 24.897 21.8505 25.0677 22 25.2813C22.1114 25.5254 22.1439 25.7776 22.0631 26.035C21.8324 26.5539 21.3134 26.7427 20.8281 26.9688C20.7978 26.9832 20.7675 26.9975 20.7363 27.0123C19.8828 27.4136 18.9877 27.6826 18.0625 27.8595C18.0236 27.8672 17.9847 27.8749 17.9446 27.8829C15.1778 28.4109 12.0837 27.7603 9.75212 26.1937C9.28146 25.8691 8.83187 25.5223 8.40623 25.1407C8.37842 25.1158 8.35061 25.0909 8.32195 25.0652C8.00282 24.7775 7.69481 24.489 7.42185 24.1563C7.38813 24.1179 7.35442 24.0795 7.31968 24.0399C5.7826 22.2622 4.91121 20.0567 4.65623 17.7345C4.65006 17.6835 4.6439 17.6325 4.63755 17.5799C4.41503 15.4509 4.91295 13.1888 5.92185 11.3126C5.93784 11.2822 5.95383 11.2519 5.97031 11.2206C6.34528 10.5112 6.80394 9.85741 7.3281 9.25008C7.35892 9.21407 7.38974 9.17806 7.42149 9.14095C7.92453 8.56768 8.46198 8.02627 9.07715 7.57396C9.15487 7.51671 9.23164 7.45834 9.30839 7.3998C10.8704 6.22745 12.759 5.54529 14.6875 5.31258C14.7607 5.30334 14.7607 5.30334 14.8354 5.29391C15.1915 5.25516 15.5486 5.26136 15.9062 5.26571C15.9057 5.23236 15.9052 5.19902 15.9047 5.16467C15.9028 5.01378 15.9016 4.86289 15.9004 4.712C15.8996 4.65952 15.8988 4.60704 15.898 4.55297C15.8977 4.50267 15.8974 4.45236 15.8971 4.40053C15.8966 4.35414 15.8961 4.30774 15.8956 4.25994C15.9062 4.14071 15.9062 4.14071 16 4.00008Z" fill="black"/>
<path d="M14.1063 9.70911C14.2878 9.7202 14.4418 9.76707 14.6113 9.82779C14.6456 9.83967 14.68 9.85154 14.7153 9.86378C14.7909 9.88999 14.8664 9.91641 14.9419 9.94299C15.1099 10.0021 15.2782 10.0603 15.4464 10.1185C15.5398 10.1509 15.6331 10.1832 15.7264 10.2156C16.3005 10.4149 16.8764 10.6091 17.4521 10.8036C17.7648 10.9092 18.0774 11.0152 18.3901 11.1211C18.4204 11.1313 18.4507 11.1416 18.482 11.1522C19.5824 11.5249 19.5824 11.5249 20.0618 11.6882C20.139 11.7144 20.2161 11.7406 20.2934 11.7668C20.6994 11.9045 21.1041 12.0457 21.5073 12.1919C21.5457 12.2056 21.5842 12.2194 21.6239 12.2336C21.6594 12.2466 21.695 12.2596 21.7316 12.273C21.7631 12.2844 21.7946 12.2959 21.8271 12.3076C21.9062 12.3438 21.9062 12.3438 22 12.4376C21.9849 12.7196 21.912 12.9647 21.8154 13.2286C21.803 13.2641 21.7906 13.2997 21.7778 13.3363C21.6843 13.597 21.6843 13.597 21.5781 13.7032C21.4767 13.7124 21.4767 13.7124 21.3613 13.7091C21.323 13.7082 21.2847 13.7074 21.2452 13.7065C21.2159 13.7054 21.1865 13.7043 21.1562 13.7032C21.1393 13.7547 21.1223 13.8062 21.1048 13.8593C21.0409 14.0526 20.9762 14.2456 20.9113 14.4385C20.8835 14.5216 20.8559 14.6048 20.8284 14.6881C20.4239 15.9148 20.4239 15.9148 19.8906 16.2813C19.5678 16.4405 19.2269 16.524 18.877 16.5999C18.8269 16.6111 18.7768 16.6223 18.7251 16.6338C18.6202 16.6572 18.5153 16.6803 18.4103 16.7033C18.2491 16.7386 18.0879 16.7744 17.9268 16.8103C17.8246 16.833 17.7224 16.8557 17.6201 16.8783C17.5718 16.889 17.5235 16.8997 17.4738 16.9107C17.4293 16.9204 17.3849 16.9301 17.3391 16.9401C17.2999 16.9487 17.2607 16.9573 17.2203 16.9662C17.125 16.9845 17.125 16.9845 17.0312 16.9845C16.9549 17.1448 16.9229 17.2752 16.9375 17.4532C17.0641 17.6539 17.2191 17.8182 17.3833 17.9886C17.4831 18.0943 17.5733 18.2069 17.6641 18.3204C17.7969 18.4839 17.9318 18.6452 18.069 18.8049C18.1774 18.9315 18.2842 19.0594 18.3906 19.1876C18.4465 19.2545 18.4465 19.2545 18.5034 19.3227C18.7301 19.611 18.8539 19.8487 18.8594 20.2188C18.7889 20.7197 18.6204 21.1917 18.4521 21.6661C18.4279 21.7354 18.4037 21.8046 18.3795 21.8739C18.3211 22.0411 18.2623 22.2082 18.2031 22.3751C18.2476 22.3857 18.2921 22.3964 18.3379 22.4073C18.4844 22.4688 18.4844 22.4688 18.5524 22.5773C18.5822 22.723 18.5682 22.7966 18.5204 22.9365C18.506 22.9795 18.4915 23.0225 18.4766 23.0669C18.4608 23.1112 18.445 23.1556 18.4287 23.2013C18.4064 23.2683 18.4064 23.2683 18.3836 23.3368C18.2433 23.7441 18.2433 23.7441 18.1094 23.8282C17.889 23.8074 17.691 23.7587 17.4819 23.6875C17.3954 23.6582 17.3954 23.6582 17.3072 23.6284C17.2446 23.6069 17.1821 23.5855 17.1195 23.564C17.0538 23.5417 16.9881 23.5194 16.9223 23.4971C16.7468 23.4375 16.5714 23.3776 16.3961 23.3176C16.2134 23.2552 16.0306 23.1931 15.8478 23.1309C15.4917 23.0098 15.1358 22.8884 14.7799 22.7668C14.5326 22.6823 14.2852 22.598 14.0378 22.5137C13.8126 22.4369 13.5873 22.36 13.3622 22.2828C12.9772 22.1508 12.5919 22.0199 12.2061 21.8904C11.988 21.8172 11.7701 21.7437 11.5522 21.6703C11.446 21.6346 11.3398 21.599 11.2336 21.5636C11.0861 21.5144 10.9388 21.4648 10.7916 21.4151C10.7474 21.4005 10.7032 21.3858 10.6577 21.3708C10.6169 21.3569 10.5761 21.3431 10.5341 21.3288C10.4986 21.3169 10.4632 21.3051 10.4267 21.2928C10.3173 21.2454 10.2331 21.1843 10.1406 21.1095C10.1665 20.8275 10.2281 20.5839 10.3252 20.3185C10.3376 20.2829 10.35 20.2474 10.3628 20.2108C10.4563 19.95 10.4563 19.95 10.5625 19.8438C10.7049 19.8454 10.8436 19.8706 10.9844 19.8907C10.9922 19.8604 11 19.83 11.008 19.7987C11.099 19.4543 11.2077 19.1188 11.3271 18.7833C11.3443 18.7333 11.3614 18.6832 11.3791 18.6317C11.5482 18.1561 11.7817 17.6815 12.2568 17.4514C12.5562 17.3305 12.8547 17.2499 13.1699 17.1815C13.22 17.1703 13.2701 17.1591 13.3217 17.1476C13.4266 17.1243 13.5316 17.1011 13.6365 17.0782C13.7978 17.0429 13.9589 17.007 14.1201 16.9711C14.2223 16.9484 14.3245 16.9258 14.4268 16.9032C14.475 16.8925 14.5233 16.8818 14.5731 16.8708C14.6398 16.8562 14.6398 16.8562 14.7078 16.8413C14.747 16.8327 14.7862 16.8241 14.8266 16.8153C14.9219 16.797 14.9219 16.797 15.0156 16.797C15.0821 16.6381 15.1159 16.5011 15.1094 16.3282C15.0139 16.1574 14.888 16.0231 14.753 15.8822C14.6399 15.762 14.5355 15.6345 14.4297 15.5079C14.3859 15.4562 14.3421 15.4045 14.2982 15.3528C14.0312 15.0371 13.7695 14.7175 13.5186 14.3888C13.4843 14.3439 13.45 14.2991 13.4147 14.2529C13.2 13.936 13.1842 13.6079 13.2344 13.2345C13.2998 12.9399 13.4054 12.6568 13.5068 12.3731C13.5328 12.298 13.5587 12.2229 13.5846 12.1477C13.6975 11.8207 13.8153 11.4957 13.9375 11.172C13.8708 11.1531 13.8708 11.1531 13.8027 11.1339C13.6562 11.0782 13.6562 11.0782 13.5625 10.9376C13.6015 10.6501 13.7787 9.73527 14.1063 9.70911ZM14.6875 11.4532C14.5934 11.7207 14.5 11.9884 14.4071 12.2563C14.3755 12.3473 14.3436 12.4383 14.3116 12.5292C14.2655 12.6602 14.2201 12.7914 14.1748 12.9226C14.1604 12.963 14.1461 13.0033 14.1313 13.0449C14.0032 13.4184 14.0032 13.4184 14.0746 13.7959C14.1068 13.8341 14.1068 13.8341 14.1396 13.8731C14.1653 13.9044 14.1909 13.9356 14.2173 13.9678C14.2487 14.0042 14.2801 14.0407 14.3125 14.0782C14.3712 14.1481 14.3712 14.1481 14.4312 14.2194C14.5195 14.3244 14.6083 14.429 14.6974 14.5334C14.8122 14.6683 14.9246 14.8049 15.0361 14.9425C15.1542 15.0878 15.2738 15.2314 15.3963 15.373C15.4342 15.4167 15.4342 15.4167 15.4729 15.4614C15.5223 15.5183 15.5718 15.5751 15.6216 15.6318C15.9509 16.0109 15.9509 16.0109 15.9556 16.1867C15.933 16.4534 15.8597 16.7026 15.7744 16.9552C15.7628 16.9923 15.7512 17.0295 15.7392 17.0678C15.7273 17.1035 15.7154 17.1392 15.7032 17.176C15.6927 17.2079 15.6822 17.2399 15.6714 17.2727C15.5923 17.4207 15.4791 17.4868 15.3214 17.5371C15.278 17.5462 15.2345 17.5553 15.1898 17.5647C15.1156 17.5807 15.1156 17.5807 15.0399 17.597C14.9867 17.608 14.9335 17.619 14.8787 17.6303C14.7961 17.648 14.7961 17.648 14.7119 17.6662C14.4767 17.7168 14.2412 17.7663 14.0057 17.8158C13.8337 17.8522 13.6619 17.8892 13.49 17.9262C13.4371 17.9371 13.3843 17.948 13.3299 17.9592C12.9024 18.0514 12.5547 18.1527 12.2969 18.5313C12.2443 18.6467 12.1998 18.755 12.1592 18.8741C12.1478 18.9061 12.1363 18.9381 12.1245 18.971C12.1004 19.0389 12.0764 19.1069 12.0528 19.1749C12.0144 19.285 11.9749 19.3946 11.9352 19.5042C11.9093 19.5764 11.8833 19.6486 11.8574 19.7208C11.8451 19.7551 11.8328 19.7894 11.8201 19.8247C11.7565 19.9942 11.7565 19.9942 11.7344 20.172C13.0028 20.6208 14.2759 21.0554 15.5505 21.4864C15.6752 21.5285 15.7998 21.5707 15.9244 21.613C16.1227 21.6802 16.3211 21.7472 16.5195 21.8142C16.5938 21.8392 16.6681 21.8644 16.7424 21.8896C16.8447 21.9242 16.947 21.9587 17.0494 21.9931C17.1072 22.0127 17.1651 22.0322 17.2246 22.0523C17.3508 22.0984 17.3508 22.0984 17.4531 22.0938C17.534 21.8606 17.614 21.6272 17.6935 21.3935C17.7205 21.3141 17.7478 21.2348 17.7753 21.1556C17.8149 21.0413 17.8538 20.9267 17.8926 20.8121C17.9049 20.7771 17.9172 20.7422 17.9299 20.7061C18.0079 20.4721 18.0355 20.2784 18.0156 20.0313C17.941 19.9157 17.8775 19.8326 17.7842 19.7354C17.7363 19.6824 17.6886 19.6294 17.6408 19.5763C17.6169 19.5503 17.593 19.5243 17.5683 19.4975C17.4709 19.3898 17.3801 19.2773 17.2891 19.1642C17.1565 19.0012 17.0224 18.8397 16.8865 18.6796C16.8426 18.6279 16.7988 18.5761 16.7551 18.5242C16.6507 18.4003 16.5456 18.2776 16.4376 18.1569C16.3996 18.1132 16.3615 18.0695 16.3223 18.0245C16.2713 17.9675 16.2713 17.9675 16.2194 17.9093C16.0932 17.7042 16.0688 17.5229 16.1183 17.2915C16.1555 17.1676 16.1979 17.0471 16.2432 16.9259C16.2575 16.8844 16.2717 16.843 16.2865 16.8003C16.3655 16.581 16.4295 16.4363 16.6094 16.2813C16.7315 16.2369 16.7315 16.2369 16.8715 16.2071C16.924 16.1955 16.9766 16.1839 17.0308 16.172C17.0874 16.1602 17.144 16.1485 17.2023 16.1363C17.2606 16.1235 17.319 16.1107 17.3792 16.0975C17.5658 16.0566 17.7526 16.0165 17.9395 15.9767C18.126 15.9368 18.3124 15.8967 18.4987 15.8558C18.6146 15.8304 18.7307 15.8056 18.8468 15.7813C19.226 15.6982 19.4969 15.6011 19.7447 15.2848C19.8433 15.1306 19.8977 14.9624 19.9547 14.7894C19.968 14.7505 19.9813 14.7116 19.995 14.6715C20.0228 14.5898 20.0503 14.508 20.0775 14.4261C20.1193 14.3004 20.1622 14.175 20.2052 14.0497C20.2321 13.9701 20.259 13.8905 20.2858 13.8109C20.2986 13.7733 20.3114 13.7357 20.3247 13.697C20.3995 13.5118 20.3995 13.5118 20.3594 13.3282C20.227 13.2773 20.0958 13.2317 19.9609 13.1883C19.9194 13.1746 19.8779 13.161 19.8351 13.1468C19.7449 13.1171 19.6546 13.0876 19.5642 13.0582C19.3225 12.9795 19.0812 12.8996 18.8398 12.8199C18.7904 12.8036 18.7409 12.7874 18.69 12.7706C18.2092 12.6122 17.7299 12.4493 17.251 12.2853C17.172 12.2582 17.093 12.2312 17.014 12.2043C16.6723 12.0874 16.3308 11.9699 15.9896 11.8514C15.8485 11.8024 15.7073 11.7534 15.5661 11.7045C15.4693 11.6709 15.3726 11.637 15.2759 11.6031C15.2187 11.5833 15.1614 11.5634 15.1024 11.5429C15.0525 11.5255 15.0027 11.5081 14.9513 11.4901C14.8271 11.4465 14.8271 11.4465 14.6875 11.4532Z" fill="black"/>
<path d="M24.3297 22.6141C24.5502 22.7506 24.7422 22.9143 24.8124 23.1718C24.8552 23.4935 24.8634 23.7899 24.6633 24.0573C24.6352 24.09 24.607 24.1226 24.578 24.1562C24.5382 24.2033 24.4985 24.2505 24.4575 24.299C24.4129 24.3502 24.3681 24.4012 24.3231 24.4521C24.3018 24.4763 24.2805 24.5005 24.2586 24.5254C24.048 24.7539 23.8225 24.8817 23.5096 24.9086C23.2577 24.9028 23.0347 24.8453 22.838 24.6841C22.6357 24.4675 22.5177 24.2639 22.5144 23.9597C22.5404 23.5548 22.7574 23.2828 23.0253 22.996C23.0607 22.9564 23.0607 22.9564 23.0969 22.916C23.4258 22.5602 23.8633 22.424 24.3297 22.6141Z" fill="black"/>
<path d="M26.1923 19.5947C26.4594 19.7516 26.5649 19.9558 26.6678 20.2387C26.7404 20.6856 26.5198 21.1941 26.2776 21.5612C26.0959 21.7793 25.9219 21.9322 25.6309 21.9675C25.3325 21.9811 25.1039 21.9418 24.8593 21.7656C24.6483 21.5659 24.5508 21.3008 24.5215 21.0147C24.5317 20.7597 24.6322 20.5327 24.7304 20.3007C24.7506 20.2525 24.7506 20.2525 24.7712 20.2033C24.8953 19.9261 25.0743 19.7316 25.3281 19.5624C25.6084 19.469 25.9222 19.4687 26.1923 19.5947Z" fill="black"/>
<path d="M26.3928 12.5808C26.8111 12.8377 26.9043 13.2299 27.0265 13.6842C27.0994 14.008 27.1047 14.2601 26.9366 14.5536C26.7707 14.7875 26.5963 14.924 26.3153 14.9921C26.0238 15.0355 25.8207 14.9772 25.5536 14.8515C25.2123 14.5482 25.0892 14.0432 24.9999 13.6093C24.9877 13.3437 25.0038 13.1361 25.1405 12.9062C25.4781 12.5411 25.9055 12.3908 26.3928 12.5808Z" fill="black"/>
<path d="M26.8355 16.0793C27.0729 16.2037 27.2411 16.3921 27.3507 16.6348C27.4052 16.8562 27.3944 17.0597 27.3818 17.2861C27.3804 17.3291 27.3789 17.372 27.3774 17.4162C27.3576 17.816 27.2597 18.0997 26.9688 18.3906C26.7211 18.5335 26.4984 18.5679 26.2188 18.5312C25.9481 18.441 25.7394 18.3218 25.5742 18.0859C25.3745 17.6865 25.444 17.1318 25.5156 16.7031C25.6155 16.4333 25.7779 16.2672 26.0107 16.1025C26.2752 16.0112 26.5659 15.9928 26.8355 16.0793Z" fill="black"/>
<path d="M24.9403 9.57167C25.2517 9.8643 25.5517 10.2939 25.6297 10.7205C25.6303 11.018 25.562 11.2586 25.3534 11.4783C25.0855 11.7109 24.8819 11.7594 24.5327 11.7514C24.2032 11.7119 24.0256 11.5238 23.8193 11.2773C23.5521 10.9254 23.3296 10.5951 23.3594 10.1406C23.4236 9.81381 23.6026 9.6204 23.875 9.43745C24.255 9.27162 24.6098 9.33218 24.9403 9.57167Z" fill="black"/>
<path d="M21.6866 6.94141C21.737 6.93959 21.737 6.93959 21.7886 6.93774C22.0869 6.97672 22.3293 7.1451 22.5684 7.31641C22.5963 7.33538 22.6241 7.35435 22.6528 7.3739C22.8866 7.54006 23.0747 7.7323 23.1631 8.01038C23.1896 8.33784 23.1653 8.61329 22.9547 8.8772C22.7284 9.09897 22.5035 9.19095 22.1875 9.20312C21.7015 9.14912 21.2533 8.79911 20.9219 8.45312C20.7337 8.20026 20.7521 7.91203 20.7813 7.60938C20.863 7.33865 21.0688 7.1589 21.2969 7C21.4266 6.95533 21.5498 6.94432 21.6866 6.94141Z" fill="black"/>
</g>
<defs>
<clipPath id="clip0_292_14804">
<rect width="24" height="24" fill="white" transform="translate(4 4)"/>
</clipPath>
</defs>
</svg>
