<svg width="31" height="31" viewBox="0 0 31 31" fill="none" xmlns="http://www.w3.org/2000/svg">
<rect width="30.489" height="30.489" rx="5.41513" fill="#FFFAED"/>
<g clip-path="url(#clip0_1518_4854)">
<path d="M16.3634 4.99229C16.3897 4.99197 16.416 4.99165 16.4431 4.99132C16.5297 4.99036 16.6163 4.98971 16.7029 4.98914C16.7474 4.98883 16.7474 4.98883 16.7929 4.98851C16.9499 4.98747 17.1069 4.98671 17.264 4.98615C17.3937 4.98563 17.5234 4.98454 17.6531 4.98294C17.8101 4.98102 17.9671 4.98005 18.1241 4.97977C18.1837 4.97951 18.2434 4.97892 18.3031 4.97798C18.3866 4.97674 18.4702 4.97674 18.5537 4.97703C18.6012 4.97672 18.6487 4.9764 18.6976 4.97607C18.8737 5.00809 18.9374 5.06854 19.0626 5.19514C19.1201 5.3674 19.1279 5.51699 19.0626 5.6883C18.8605 5.9283 18.5269 6.05398 18.2521 6.19367C17.4312 6.61717 16.6415 7.09413 15.9376 7.69514C15.9106 7.71649 15.8836 7.73784 15.8557 7.75983C15.4735 8.06985 15.0936 8.54161 15.0195 9.03791C14.9969 9.47713 15.153 9.78973 15.4298 10.1219C15.8143 10.523 16.3082 10.8001 16.797 11.0545C16.8215 11.0673 16.8459 11.08 16.8711 11.0932C17.622 11.4786 18.4314 11.7462 19.2318 12.0083C19.7352 12.1731 20.2296 12.338 20.7033 12.5779C20.749 12.6007 20.749 12.6007 20.7957 12.624C21.185 12.819 21.5618 13.0239 21.9142 13.2811C21.9555 13.3108 21.9969 13.3406 22.0395 13.3713C22.6429 13.8183 23.1889 14.366 23.5939 14.9998C23.617 15.0359 23.617 15.0359 23.6406 15.0726C24.3006 16.1221 24.5488 17.3375 24.546 18.5618C24.546 18.616 24.546 18.616 24.546 18.6712C24.5443 19.2828 24.502 19.8686 24.3751 20.4686C24.3666 20.5095 24.358 20.5505 24.3491 20.5927C24.2876 20.879 24.2173 21.1624 24.1408 21.4451C24.1308 21.4822 24.1207 21.5192 24.1104 21.5573C23.9326 22.2015 23.6948 22.8211 23.4376 23.4373C23.4193 23.4814 23.4009 23.5255 23.382 23.5709C22.9211 24.6626 22.9211 24.6626 22.324 24.951C22.0759 25.0398 21.8258 25.0318 21.5661 25.0289C21.5051 25.0291 21.444 25.0294 21.3829 25.0298C21.2185 25.0305 21.0542 25.0298 20.8898 25.0287C20.7173 25.0278 20.5449 25.0282 20.3724 25.0283C20.0833 25.0284 19.7942 25.0275 19.5051 25.0261C19.1708 25.0244 18.8365 25.0242 18.5022 25.0246C18.1801 25.0251 17.858 25.0247 17.5359 25.0238C17.3989 25.0234 17.262 25.0233 17.125 25.0235C16.9641 25.0237 16.8032 25.023 16.6422 25.0218C16.5831 25.0215 16.524 25.0214 16.4649 25.0216C16.3844 25.0219 16.3039 25.0211 16.2234 25.0202C16.1783 25.02 16.1333 25.0199 16.0868 25.0197C15.9767 24.9998 15.9767 24.9998 15.9036 24.929C15.8389 24.8037 15.8447 24.7089 15.8595 24.5701C15.9081 24.4846 15.9081 24.4846 15.9767 24.4139C16.057 24.3947 16.057 24.3947 16.151 24.3951C16.2044 24.3948 16.2044 24.3948 16.259 24.3944C16.3176 24.3953 16.3176 24.3953 16.3773 24.3961C16.439 24.3961 16.439 24.3961 16.502 24.3961C16.6384 24.3962 16.7747 24.3974 16.911 24.3986C17.0054 24.3989 17.0998 24.3991 17.1943 24.3993C17.443 24.3999 17.6917 24.4014 17.9404 24.4032C18.1941 24.4048 18.4478 24.4055 18.7015 24.4063C19.1995 24.4079 19.6975 24.4106 20.1955 24.4139C20.2067 24.3842 20.218 24.3544 20.2296 24.3238C20.2854 24.1903 20.3648 24.0779 20.4469 23.9598C20.6817 23.614 20.8912 23.2559 21.0939 22.8904C21.1129 22.8562 21.132 22.822 21.1516 22.7867C21.7479 21.7053 22.2427 20.5245 22.4043 19.2923C22.4356 19.0788 22.4756 18.964 22.6564 18.8279C22.7736 18.8035 22.7736 18.8035 22.8908 18.8279C23.0031 18.9061 23.0031 18.9061 23.0861 19.0233C23.1059 19.2829 23.0576 19.522 23.0031 19.7752C22.9943 19.8164 22.9855 19.8576 22.9764 19.9001C22.8904 20.2919 22.7848 20.6745 22.6564 21.0545C22.6405 21.1016 22.6405 21.1016 22.6243 21.1497C22.2308 22.2912 21.6441 23.3724 20.9767 24.3748C21.1191 24.3783 21.2615 24.3803 21.4039 24.3821C21.4439 24.3831 21.4838 24.3841 21.5249 24.3851C21.8343 24.3881 22.1016 24.3755 22.3349 24.1557C22.4451 24.0022 22.5256 23.8327 22.6051 23.6619C22.6218 23.6263 22.6385 23.5908 22.6557 23.5541C23.2288 22.3089 23.654 20.9713 23.8283 19.6092C23.8339 19.5664 23.8339 19.5664 23.8396 19.5227C23.929 18.7531 23.9233 17.9041 23.7501 17.1483C23.7428 17.1157 23.7354 17.0832 23.7279 17.0496C23.5127 16.1338 23.1008 15.3284 22.4499 14.6478C22.383 14.5701 22.383 14.5701 22.3439 14.4529C22.2921 14.4263 22.24 14.4004 22.1876 14.3748C22.1237 14.3176 22.0612 14.2588 21.9997 14.199C21.1956 13.4463 20.103 12.9839 19.0682 12.6548C18.889 12.5977 18.7105 12.5387 18.5319 12.4797C18.4792 12.4622 18.4792 12.4622 18.4253 12.4445C17.0707 11.9943 15.3013 11.3716 14.5499 10.0512C14.3686 9.68089 14.3201 9.31478 14.3361 8.90607C14.1761 9.31927 14.1479 9.75553 14.3208 10.1695C15.0462 11.555 16.9036 12.1641 18.2689 12.6703C19.5143 13.1323 20.6255 13.6497 21.6017 14.5701C21.6305 14.5964 21.6592 14.6226 21.6888 14.6496C22.5117 15.4288 23.0322 16.5694 23.1251 17.6951C23.1113 17.8354 23.1017 17.9075 23.0202 18.0223C22.9005 18.1063 22.839 18.1092 22.6955 18.0858C22.5963 18.0353 22.5963 18.0353 22.5001 17.9295C22.4521 17.7785 22.4296 17.6243 22.4049 17.4681C22.3341 17.0737 22.2464 16.7292 22.0705 16.367C22.0586 16.3424 22.0468 16.3177 22.0346 16.2923C21.8729 15.9598 21.6911 15.6689 21.4455 15.3904C21.4059 15.3432 21.4059 15.3432 21.3655 15.2949C20.4789 14.2627 19.2035 13.7197 17.9521 13.2686C16.361 12.6929 14.4584 11.9704 13.672 10.3514C13.4703 9.88225 13.4965 9.28566 13.6548 8.80811C13.8629 8.30396 14.1608 7.89644 14.5314 7.49982C14.5563 7.47263 14.5812 7.44544 14.6069 7.41743C14.7986 7.21697 15.0176 7.04686 15.2345 6.87482C15.2732 6.84376 15.3119 6.81269 15.3517 6.78068C15.9138 6.3373 16.5266 5.97714 17.1486 5.62482C16.3055 5.60684 15.7273 5.79534 14.9905 6.19201C14.8785 6.25224 14.7662 6.312 14.6539 6.37174C13.4512 7.01431 12.278 7.73105 11.2501 8.63264C11.2238 8.65469 11.1974 8.67675 11.1702 8.69947C10.3376 9.4004 9.62836 10.2388 9.4789 11.3496C9.45183 11.9654 9.7553 12.5215 10.1565 12.9634C10.5374 13.3674 10.9891 13.6591 11.4498 13.9623C12.5684 14.6989 13.5742 15.6043 13.882 16.9627C14.0763 18.2951 13.5489 19.4914 12.7765 20.5453C12.5922 20.7906 12.3927 21.0218 12.1876 21.2498C12.1696 21.2701 12.1515 21.2904 12.1329 21.3113C11.7703 21.7173 11.3923 22.1087 10.9767 22.4608C10.938 22.4947 10.8993 22.5286 10.8594 22.5636C10.5332 22.8487 10.195 23.1148 9.84864 23.3749C9.76856 23.4352 9.68891 23.4961 9.60936 23.5571C9.33552 23.7662 9.05703 23.965 8.76952 24.1549C8.72135 24.1869 8.72135 24.1869 8.6722 24.2195C8.59406 24.2714 8.51587 24.3231 8.43764 24.3748C8.47115 24.3749 8.50466 24.375 8.53919 24.3751C9.35387 24.3774 10.1685 24.3804 10.9832 24.384C11.3772 24.3858 11.7712 24.3873 12.1651 24.3884C12.5084 24.3893 12.8517 24.3906 13.195 24.3924C13.3769 24.3933 13.5587 24.394 13.7406 24.3943C13.9116 24.3945 14.0827 24.3953 14.2537 24.3965C14.3166 24.3968 14.3795 24.397 14.4424 24.3969C14.528 24.3968 14.6137 24.3975 14.6993 24.3983C14.7473 24.3985 14.7953 24.3987 14.8448 24.3989C14.9611 24.4139 14.9611 24.4139 15.034 24.4677C15.0951 24.5553 15.1097 24.6199 15.1173 24.7264C15.0808 24.8473 15.0508 24.9101 14.9611 24.9998C14.8421 25.0077 14.7267 25.0107 14.6077 25.0103C14.5707 25.0104 14.5336 25.0106 14.4954 25.0108C14.3704 25.0113 14.2454 25.0112 14.1204 25.0112C14.0311 25.0114 13.9418 25.0117 13.8525 25.012C13.6094 25.0127 13.3662 25.0128 13.123 25.0129C12.9202 25.013 12.7174 25.0133 12.5146 25.0135C12.0636 25.0141 11.6126 25.0144 11.1615 25.0143C11.1344 25.0143 11.1074 25.0143 11.0795 25.0143C11.0523 25.0143 11.0252 25.0143 10.9973 25.0143C10.5581 25.0143 10.1188 25.015 9.67959 25.0161C9.22873 25.0172 8.77787 25.0178 8.32701 25.0177C8.07383 25.0177 7.82066 25.0179 7.56748 25.0187C7.32932 25.0195 7.09117 25.0195 6.85301 25.0189C6.76556 25.0188 6.6781 25.019 6.59064 25.0195C6.47131 25.0201 6.35203 25.0197 6.2327 25.0191C6.18069 25.0197 6.18069 25.0197 6.12762 25.0204C5.91493 25.018 5.79428 24.9846 5.62514 24.8436C5.45583 24.6509 5.4548 24.4637 5.45867 24.2161C5.47312 24.0539 5.51098 23.9839 5.62514 23.867C5.89229 23.6651 6.17751 23.4904 6.46254 23.3153C6.88204 23.0551 7.29212 22.7844 7.69545 22.4998C7.72473 22.4792 7.754 22.4586 7.78416 22.4373C10.3276 20.6414 10.3276 20.6414 11.7799 17.9799C11.873 17.28 11.746 16.6829 11.3198 16.1076C10.9082 15.573 10.3778 15.2073 9.81706 14.8422C9.45223 14.6039 9.11008 14.3572 8.7892 14.0623C8.76025 14.0365 8.73129 14.0108 8.70146 13.9842C8.14163 13.4604 7.77969 12.7239 7.75405 11.9554C7.79802 10.7446 8.5906 9.75876 9.44243 8.9664C9.70592 8.72713 9.98548 8.51134 10.2721 8.3007C10.3478 8.24488 10.4228 8.18828 10.4977 8.13139C11.0836 7.68925 11.7156 7.31958 12.3472 6.94754C12.5999 6.79869 12.8512 6.64805 13.1007 6.49396C13.6462 6.15896 14.2023 5.845 14.7698 5.54878C14.8183 5.52345 14.8668 5.49804 14.9152 5.47254C15.3793 5.22879 15.8314 4.99792 16.3634 4.99229ZM14.3751 8.74982C14.4142 8.82795 14.4142 8.82795 14.4142 8.82795L14.3751 8.74982ZM8.94545 10.4686C8.58225 11.0111 8.31545 11.5908 8.41521 12.2598C8.6279 13.2476 9.45608 13.8611 10.2589 14.3797C10.5759 14.5851 10.8818 14.7964 11.172 15.0389C11.2264 15.0832 11.2264 15.0832 11.2819 15.1285C11.8931 15.6578 12.353 16.39 12.4312 17.2048C12.4836 17.9711 12.2934 18.6361 11.9142 19.2967C11.8994 19.3227 11.8847 19.3488 11.8695 19.3756C11.6383 19.778 11.3667 20.1261 11.0548 20.4686C11.0172 20.5105 10.9795 20.5525 10.9419 20.5945C10.6329 20.9371 10.3126 21.2633 9.96108 21.5623C9.92643 21.5926 9.89179 21.623 9.8561 21.6542C9.47743 21.9832 9.07598 22.2809 8.67201 22.5779C8.64151 22.6004 8.611 22.6229 8.57956 22.6461C7.93755 23.1183 7.27332 23.5528 6.60018 23.9792C6.56758 23.9999 6.53499 24.0206 6.50141 24.042C6.43875 24.0812 6.3755 24.1194 6.31167 24.1566C6.28301 24.1735 6.25434 24.1904 6.22481 24.2077C6.18679 24.2294 6.18679 24.2294 6.148 24.2515C6.13014 24.2664 6.11229 24.2813 6.09389 24.2967C6.09389 24.3354 6.09389 24.374 6.09389 24.4139C6.7622 24.4649 7.25696 24.4736 7.79639 24.0554C7.90313 23.9749 8.01306 23.9009 8.12453 23.827C8.8558 23.3423 9.56145 22.8283 10.2345 22.2654C10.2576 22.2462 10.2807 22.227 10.3045 22.2072C11.0431 21.5906 11.7322 20.9318 12.3048 20.1561C12.3214 20.1336 12.338 20.1112 12.3552 20.0881C12.8345 19.4311 13.2429 18.6385 13.2814 17.8123C13.2834 17.7868 13.2854 17.7613 13.2875 17.735C13.3086 17.2652 13.1772 16.7836 12.9689 16.367C12.9497 16.3285 12.9304 16.2901 12.9106 16.2504C12.4606 15.4194 11.6511 14.8407 10.8761 14.3365C10.5098 14.0973 10.1681 13.8486 9.84389 13.5545C9.81765 13.5315 9.79142 13.5085 9.76439 13.4848C9.29491 13.0495 8.90398 12.3659 8.86241 11.7203C8.85926 11.6342 8.85794 11.5483 8.85756 11.4622C8.85741 11.4315 8.85725 11.4007 8.85709 11.3691C8.85947 11.1278 8.8959 10.916 8.96269 10.6836C8.99428 10.5815 8.99428 10.5815 8.94545 10.4686Z" fill="black"/>
<path d="M17.9299 19.3751C18.0227 19.4166 18.0227 19.4166 18.0862 19.4923C18.1419 19.7139 18.1085 19.8527 18.0032 20.0489C17.9916 20.0728 17.98 20.0966 17.9681 20.1212C17.8889 20.2749 17.8152 20.3601 17.6565 20.4298C17.5159 20.4269 17.4439 20.4062 17.3293 20.3248C17.2453 20.2052 17.2522 20.1448 17.2658 20.0001C17.3215 19.8702 17.3215 19.8702 17.3952 19.7388C17.4193 19.6952 17.4433 19.6515 17.468 19.6066C17.6024 19.391 17.6682 19.3475 17.9299 19.3751Z" fill="black"/>
<path d="M17.5781 15.5077C17.6643 15.5724 17.7096 15.6194 17.7734 15.7031C17.7979 15.7329 17.8224 15.7627 17.8476 15.7934C18.0455 16.0499 18.0455 16.0499 18.0518 16.2475C17.9867 16.4247 17.9867 16.4247 17.8906 16.4843C17.7577 16.5248 17.6883 16.5386 17.5613 16.4782C17.4464 16.3958 17.3773 16.311 17.2949 16.1962C17.2547 16.1414 17.2547 16.1414 17.2137 16.0854C17.1492 15.9777 17.1191 15.9057 17.1094 15.7812C17.2146 15.5207 17.2976 15.4792 17.5781 15.5077Z" fill="black"/>
<path d="M16.797 21.0938C16.8922 21.1524 16.8922 21.1524 16.9533 21.2501C16.9833 21.51 16.9833 21.51 16.914 21.6313C16.8603 21.6964 16.8039 21.7552 16.7433 21.814C16.7235 21.8347 16.7036 21.8553 16.6832 21.8765C16.4986 22.0658 16.4986 22.0658 16.3332 22.0802C16.1946 22.0691 16.1459 22.0578 16.0548 21.9532C16.0144 21.8076 15.9943 21.7218 16.0643 21.5849C16.1343 21.4825 16.2089 21.3911 16.2917 21.2989C16.3187 21.2685 16.3457 21.2381 16.3736 21.2067C16.5048 21.0719 16.6131 21.078 16.797 21.0938Z" fill="black"/>
<path d="M12.5 8.43759C12.6001 8.51816 12.6001 8.51816 12.6562 8.6329C12.6492 8.86119 12.5732 8.99041 12.4243 9.15536C12.4065 9.17616 12.3887 9.19695 12.3704 9.21838C12.2621 9.34304 12.2043 9.4067 12.0386 9.4288C11.9141 9.41415 11.9141 9.41415 11.8018 9.33114C11.7187 9.21884 11.7187 9.21884 11.6919 9.10898C11.7313 8.92649 11.8349 8.81278 11.9531 8.67196C11.9821 8.6341 12.0111 8.59623 12.041 8.55722C12.1655 8.41054 12.3172 8.40623 12.5 8.43759Z" fill="black"/>
<path d="M15.9767 14.2579C16.0994 14.3174 16.0994 14.3174 16.2208 14.3897C16.2613 14.4134 16.3018 14.437 16.3435 14.4614C16.4454 14.5313 16.4454 14.5313 16.5236 14.6485C16.5448 14.7851 16.5499 14.9156 16.4796 15.0367C16.3666 15.1007 16.3046 15.1172 16.172 15.1172C15.9343 15.0299 15.6263 14.8853 15.5079 14.6485C15.4957 14.5362 15.4957 14.5362 15.5079 14.4141C15.6581 14.2289 15.7474 14.2036 15.9767 14.2579Z" fill="black"/>
<path d="M12.7686 12.3657C12.9645 12.5679 12.9645 12.5679 12.9785 12.7294C12.9674 12.868 12.9561 12.9167 12.8516 13.0078C12.7061 13.0481 12.6201 13.0681 12.4832 12.9987C12.2674 12.8502 12.0678 12.6824 11.98 12.4316C11.9951 12.2746 12.033 12.2153 12.1484 12.1093C12.3838 11.9794 12.6125 12.2116 12.7686 12.3657Z" fill="black"/>
<path d="M11.4845 10.2514C11.5103 10.2505 11.536 10.2497 11.5626 10.2488C11.6907 10.2891 11.7288 10.3546 11.797 10.4687C11.8244 10.5865 11.8312 10.702 11.836 10.8227C11.8385 10.854 11.841 10.8854 11.8435 10.9176C11.8552 11.1454 11.8552 11.1454 11.7651 11.2694C11.6543 11.3455 11.5798 11.3644 11.4454 11.3671C11.3054 11.3162 11.2619 11.2753 11.1988 11.14C11.1484 10.9119 11.1389 10.6601 11.172 10.4296C11.2626 10.3075 11.3308 10.2511 11.4845 10.2514Z" fill="black"/>
<path d="M18.242 17.3585C18.2678 17.358 18.2936 17.3575 18.3201 17.3569C18.4477 17.3993 18.4867 17.4634 18.5545 17.5782C18.5776 17.696 18.5781 17.81 18.5765 17.9297C18.5774 17.9608 18.5783 17.9918 18.5793 18.0237C18.5789 18.1928 18.5697 18.2618 18.4628 18.3994C18.3592 18.4766 18.3592 18.4766 18.242 18.501C18.0807 18.4674 18.0302 18.4111 17.9295 18.2813C17.9023 18.1632 17.9039 18.0504 17.9075 17.9297C17.9071 17.8987 17.9067 17.8677 17.9062 17.8358C17.9082 17.6813 17.9193 17.5954 17.9992 17.4601C18.0899 17.3791 18.1227 17.3561 18.242 17.3585Z" fill="black"/>
<path d="M14.0456 13.2969C14.2784 13.3542 14.5183 13.5028 14.6873 13.6718C14.7135 13.9424 14.7135 13.9424 14.6263 14.082C14.4949 14.1628 14.4107 14.1528 14.2577 14.1406C14.1226 14.0849 14.1226 14.0849 13.9915 14.0112C13.9478 13.9872 13.904 13.9632 13.8589 13.9384C13.7498 13.8671 13.7498 13.8671 13.6717 13.75C13.6554 13.6001 13.6504 13.5112 13.7303 13.3813C13.8374 13.3144 13.9188 13.2914 14.0456 13.2969Z" fill="black"/>
<path d="M13.8671 7.2656C13.9969 7.36154 14.0536 7.41895 14.0868 7.5781C14.047 7.76891 13.9236 7.84748 13.7743 7.96141C13.6388 8.02268 13.5454 8.02651 13.3983 8.00779C13.3031 7.94676 13.3031 7.94676 13.2421 7.85154C13.2201 7.71726 13.2201 7.71726 13.2421 7.5781C13.4058 7.37225 13.5952 7.2203 13.8671 7.2656Z" fill="black"/>
<path d="M15.3516 22.5783C15.4435 22.6396 15.4639 22.6827 15.5029 22.7858C15.5097 22.9306 15.4681 23.0037 15.3906 23.1252C15.2616 23.2615 15.1427 23.3149 14.9585 23.3292C14.8828 23.3205 14.8828 23.3205 14.7656 23.2423C14.6875 23.1252 14.6875 23.1252 14.6558 22.9933C14.7021 22.7864 14.8317 22.6979 15 22.5783C15.123 22.5168 15.2201 22.5506 15.3516 22.5783Z" fill="black"/>
</g>
<path d="M22.9411 3.44C22.9411 3.31333 22.9845 3.21 23.0711 3.13C23.1645 3.04333 23.2811 3 23.4211 3H26.3411C26.7811 3 27.1711 3.09333 27.5111 3.28C27.8511 3.46 28.1145 3.71667 28.3011 4.05C28.4878 4.37667 28.5811 4.75333 28.5811 5.18C28.5811 5.62 28.4878 6.00667 28.3011 6.34C28.1211 6.67333 27.8611 6.93 27.5211 7.11C27.1811 7.29 26.7878 7.38 26.3411 7.38H23.8811V9.31C23.8811 9.56333 23.8011 9.75667 23.6411 9.89C23.4811 10.0233 23.2478 10.09 22.9411 10.09V3.44ZM26.3411 6.55C26.7411 6.55 27.0578 6.43 27.2911 6.19C27.5245 5.94333 27.6411 5.60667 27.6411 5.18C27.6411 4.76667 27.5211 4.44 27.2811 4.2C27.0478 3.95333 26.7345 3.83 26.3411 3.83H23.8811V6.55H26.3411Z" fill="black"/>
<defs>
<clipPath id="clip0_1518_4854">
<rect width="20" height="20" fill="white" transform="translate(5 5)"/>
</clipPath>
</defs>
</svg>
