<!DOCTYPE svg PUBLIC "-//W3C//DTD SVG 1.1//EN" "http://www.w3.org/Graphics/SVG/1.1/DTD/svg11.dtd">
<!-- Uploaded to: SVG Repo, www.svgrepo.com, Transformed by: SVG Repo Mixer Tools -->
<svg height="800px" width="800px" version="1.1" id="Layer_1" xmlns="http://www.w3.org/2000/svg" xmlns:xlink="http://www.w3.org/1999/xlink" viewBox="0 0 512 512" xml:space="preserve" fill="#000000">
<g id="SVGRepo_bgCarrier" stroke-width="0"/>
<g id="SVGRepo_tracerCarrier" stroke-linecap="round" stroke-linejoin="round"/>
<g id="SVGRepo_iconCarrier"> <g transform="translate(1 1)"> <polygon style="fill:#38C6B4;" points="169.667,485.4 255,485.4 255,101.4 169.667,101.4 "/> <g> <path style="fill:#222077;" d="M263.533,493.933h-102.4V92.867h102.4V493.933z M178.2,476.867h68.267V109.933H178.2V476.867z"/> <path style="fill:#222077;" d="M24.6,511c-5.12,0-8.533-3.413-8.533-8.533v-8.533H7.533C2.413,493.933-1,490.52-1,485.4 s3.413-8.533,8.533-8.533h8.533V7.533C16.067,2.413,19.48-1,24.6-1s8.533,3.413,8.533,8.533v469.333h469.333 c5.12,0,8.533,3.413,8.533,8.533s-3.413,8.533-8.533,8.533H33.133v8.533C33.133,507.587,29.72,511,24.6,511z"/> <path style="fill:#222077;" d="M203.8,118.467c0,5.12,3.413,8.533,8.533,8.533c5.12,0,8.533-3.413,8.533-8.533 s-3.413-8.533-8.533-8.533C207.213,109.933,203.8,113.347,203.8,118.467"/> <path style="fill:#222077;" d="M203.8,169.667c0,5.12,3.413,8.533,8.533,8.533c5.12,0,8.533-3.413,8.533-8.533 c0-5.12-3.413-8.533-8.533-8.533C207.213,161.133,203.8,164.547,203.8,169.667"/> <path style="fill:#222077;" d="M178.2,144.067c0,5.12,3.413,8.533,8.533,8.533c5.12,0,8.533-3.413,8.533-8.533 c0-5.12-3.413-8.533-8.533-8.533C181.613,135.533,178.2,138.947,178.2,144.067"/> <path style="fill:#222077;" d="M178.2,195.267c0,5.12,3.413,8.533,8.533,8.533c5.12,0,8.533-3.413,8.533-8.533 c0-5.12-3.413-8.533-8.533-8.533C181.613,186.733,178.2,190.147,178.2,195.267"/> <path style="fill:#222077;" d="M229.4,144.067c0,5.12,3.413,8.533,8.533,8.533c5.12,0,8.533-3.413,8.533-8.533 c0-5.12-3.413-8.533-8.533-8.533C232.813,135.533,229.4,138.947,229.4,144.067"/> <path style="fill:#222077;" d="M229.4,195.267c0,5.12,3.413,8.533,8.533,8.533c5.12,0,8.533-3.413,8.533-8.533 c0-5.12-3.413-8.533-8.533-8.533C232.813,186.733,229.4,190.147,229.4,195.267"/> <path style="fill:#222077;" d="M203.8,220.867c0,5.12,3.413,8.533,8.533,8.533c5.12,0,8.533-3.413,8.533-8.533 c0-5.12-3.413-8.533-8.533-8.533C207.213,212.333,203.8,215.747,203.8,220.867"/> <path style="fill:#222077;" d="M203.8,272.067c0,5.12,3.413,8.533,8.533,8.533c5.12,0,8.533-3.413,8.533-8.533 s-3.413-8.533-8.533-8.533C207.213,263.533,203.8,266.947,203.8,272.067"/> <path style="fill:#222077;" d="M178.2,246.467c0,5.12,3.413,8.533,8.533,8.533c5.12,0,8.533-3.413,8.533-8.533 c0-5.12-3.413-8.533-8.533-8.533C181.613,237.933,178.2,241.347,178.2,246.467"/> <path style="fill:#222077;" d="M178.2,297.667c0,5.12,3.413,8.533,8.533,8.533c5.12,0,8.533-3.413,8.533-8.533 s-3.413-8.533-8.533-8.533C181.613,289.133,178.2,292.547,178.2,297.667"/> <path style="fill:#222077;" d="M229.4,246.467c0,5.12,3.413,8.533,8.533,8.533c5.12,0,8.533-3.413,8.533-8.533 c0-5.12-3.413-8.533-8.533-8.533C232.813,237.933,229.4,241.347,229.4,246.467"/> <path style="fill:#222077;" d="M229.4,297.667c0,5.12,3.413,8.533,8.533,8.533c5.12,0,8.533-3.413,8.533-8.533 s-3.413-8.533-8.533-8.533C232.813,289.133,229.4,292.547,229.4,297.667"/> <path style="fill:#222077;" d="M203.8,323.267c0,5.12,3.413,8.533,8.533,8.533c5.12,0,8.533-3.413,8.533-8.533 c0-5.12-3.413-8.533-8.533-8.533C207.213,314.733,203.8,318.147,203.8,323.267"/> <path style="fill:#222077;" d="M203.8,374.467c0,5.12,3.413,8.533,8.533,8.533c5.12,0,8.533-3.413,8.533-8.533 c0-5.12-3.413-8.533-8.533-8.533C207.213,365.933,203.8,369.347,203.8,374.467"/> <path style="fill:#222077;" d="M178.2,348.867c0,5.12,3.413,8.533,8.533,8.533c5.12,0,8.533-3.413,8.533-8.533 c0-5.12-3.413-8.533-8.533-8.533C181.613,340.333,178.2,343.747,178.2,348.867"/> <path style="fill:#222077;" d="M178.2,400.067c0,5.12,3.413,8.533,8.533,8.533c5.12,0,8.533-3.413,8.533-8.533 s-3.413-8.533-8.533-8.533C181.613,391.533,178.2,394.947,178.2,400.067"/> <path style="fill:#222077;" d="M229.4,348.867c0,5.12,3.413,8.533,8.533,8.533c5.12,0,8.533-3.413,8.533-8.533 c0-5.12-3.413-8.533-8.533-8.533C232.813,340.333,229.4,343.747,229.4,348.867"/> <path style="fill:#222077;" d="M229.4,400.067c0,5.12,3.413,8.533,8.533,8.533c5.12,0,8.533-3.413,8.533-8.533 s-3.413-8.533-8.533-8.533C232.813,391.533,229.4,394.947,229.4,400.067"/> <path style="fill:#222077;" d="M203.8,425.667c0,5.12,3.413,8.533,8.533,8.533c5.12,0,8.533-3.413,8.533-8.533 s-3.413-8.533-8.533-8.533C207.213,417.133,203.8,420.547,203.8,425.667"/> <path style="fill:#222077;" d="M203.8,476.867c0,5.12,3.413,8.533,8.533,8.533c5.12,0,8.533-3.413,8.533-8.533 c0-5.12-3.413-8.533-8.533-8.533C207.213,468.333,203.8,471.747,203.8,476.867"/> <path style="fill:#222077;" d="M178.2,451.267c0,5.12,3.413,8.533,8.533,8.533c5.12,0,8.533-3.413,8.533-8.533 s-3.413-8.533-8.533-8.533C181.613,442.733,178.2,446.147,178.2,451.267"/> <path style="fill:#222077;" d="M229.4,451.267c0,5.12,3.413,8.533,8.533,8.533c5.12,0,8.533-3.413,8.533-8.533 s-3.413-8.533-8.533-8.533C232.813,442.733,229.4,446.147,229.4,451.267"/> </g> <polygon style="fill:#38C6B4;" points="280.6,485.4 365.933,485.4 365.933,365.933 280.6,365.933 "/> <path style="fill:#222077;" d="M374.467,493.933h-102.4V357.4h102.4V493.933z M289.133,476.867H357.4v-102.4h-68.267V476.867z"/> <polygon style="fill:#38C6B4;" points="391.533,485.4 476.867,485.4 476.867,289.133 391.533,289.133 "/> <path style="fill:#222077;" d="M485.4,493.933H383V280.6h102.4V493.933z M400.067,476.867h68.267v-179.2h-68.267V476.867z"/> <polygon style="fill:#38C6B4;" points="58.733,485.4 144.067,485.4 144.067,169.667 58.733,169.667 "/> <path style="fill:#222077;" d="M152.6,493.933H50.2v-332.8h102.4V493.933z M67.267,476.867h68.267V178.2H67.267V476.867z"/> </g> </g>
</svg>