<svg width="31" height="31" viewBox="0 0 31 31" fill="none" xmlns="http://www.w3.org/2000/svg">
<g clip-path="url(#clip0_447_18242)">
<path d="M14.9564 -9.15897e-05C15.011 -7.83937e-05 15.0657 -6.51982e-05 15.122 -5.16023e-05C16.0349 0.0021408 16.9108 0.0689364 17.8032 0.272889C17.857 0.284903 17.9109 0.296918 17.9664 0.309297C20.8286 0.963624 23.5178 2.66333 25.2907 5.01495C25.3184 5.05147 25.3462 5.08798 25.3748 5.12561C27.4641 7.89527 28.3431 11.3907 27.8787 14.8264C27.6454 16.3625 27.1518 17.8136 26.4138 19.1787C26.3939 19.2161 26.3739 19.2534 26.3534 19.2919C25.0879 21.6488 23.0588 23.5104 20.6635 24.6747C19.9692 25.0143 19.3236 25.4095 18.7391 25.9175C18.6873 25.9617 18.6355 26.0059 18.5822 26.0515C17.349 27.1296 16.676 28.4784 15.9574 29.9225C15.9389 29.9597 15.9203 29.9969 15.9013 30.0352C15.8107 30.217 15.7206 30.399 15.6311 30.5814C15.5987 30.6468 15.5664 30.7123 15.5331 30.7797C15.5045 30.8379 15.4759 30.896 15.4465 30.956C15.3698 31.0963 15.3698 31.0963 15.245 31.2211C14.9289 31.2729 14.9289 31.2729 14.7458 31.2211C14.6619 31.1278 14.6619 31.1278 14.5911 31.0042C14.5648 30.9587 14.5386 30.9133 14.5115 30.8664C14.3863 30.6335 14.2674 30.3982 14.1523 30.1601C14.0993 30.0523 14.0463 29.9444 13.9933 29.8366C13.9116 29.6697 13.8301 29.5028 13.749 29.3356C13.3168 28.446 12.8558 27.583 12.1954 26.8378C12.1643 26.8023 12.1332 26.7668 12.1011 26.7303C11.3621 25.9013 10.5204 25.2837 9.52124 24.8009C6.2624 23.2186 3.8303 20.4791 2.64106 17.0573C1.58231 13.7694 1.83926 10.1804 3.37762 7.084C3.76786 6.32892 4.22971 5.61447 4.76251 4.95256C4.81351 4.88885 4.8645 4.82515 4.91704 4.75952C5.60713 3.91334 6.37919 3.16613 7.25834 2.51913C7.31126 2.47972 7.36418 2.44031 7.41871 2.3997C9.01052 1.24919 10.8709 0.459054 12.8115 0.148098C12.8777 0.137169 12.9439 0.126241 13.012 0.114981C13.6615 0.0171678 14.3006 -0.00156003 14.9564 -9.15897e-05Z" fill="#0544BE"/>
<circle cx="14.8816" cy="12.8816" r="9.79007" fill="#D9D9D9"/>
<path d="M17.1088 3.50396C17.9123 3.75701 18.6914 3.74543 19.4968 3.50379C19.4968 4.47855 19.4968 5.4533 19.4968 6.45759C18.6895 6.72671 17.8924 6.70645 17.0853 6.45759C16.8776 6.39424 16.6718 6.33644 16.4574 6.30063C16.4393 6.29758 16.4212 6.29452 16.4025 6.29138C15.9868 6.23105 15.5635 6.2544 15.1528 6.33703C15.1208 6.34262 15.089 6.34701 15.0567 6.35097C15.0386 6.3532 15.0205 6.35542 15.0019 6.35771C15.002 6.37409 15.002 6.39047 15.002 6.40735C15.003 6.7963 15.0037 7.18526 15.0041 7.57421C15.0042 7.62209 15.0042 7.66998 15.0043 7.71786C15.0043 7.7274 15.0043 7.73693 15.0043 7.74675C15.0045 7.90106 15.0048 8.05537 15.0052 8.20968C15.0056 8.36804 15.0059 8.5264 15.0059 8.68476C15.006 8.7737 15.0061 8.86264 15.0064 8.95158C15.0067 9.03528 15.0068 9.11899 15.0068 9.2027C15.0068 9.23342 15.0069 9.26414 15.007 9.29487C15.0072 9.33683 15.0072 9.37878 15.0071 9.42074C15.0072 9.43288 15.0073 9.44503 15.0074 9.45754C15.0069 9.53358 14.9951 9.58659 14.9591 9.65398C14.9204 9.68638 14.8956 9.69563 14.8458 9.70303C14.7906 9.69514 14.76 9.67408 14.7165 9.63971C14.6954 9.5974 14.7005 9.55952 14.7005 9.51228C14.7005 9.50194 14.7005 9.49159 14.7005 9.48093C14.7004 9.44592 14.7005 9.4109 14.7005 9.37588C14.7005 9.35067 14.7005 9.32545 14.7005 9.30023C14.7005 9.23066 14.7005 9.16109 14.7006 9.09152C14.7007 9.01661 14.7006 8.94169 14.7006 8.86677C14.7006 8.73688 14.7007 8.60699 14.7008 8.47709C14.7009 8.28929 14.7009 8.10148 14.7009 7.91368C14.701 7.60901 14.701 7.30434 14.7012 6.99967C14.7013 6.70364 14.7014 6.40761 14.7015 6.11158C14.7015 6.09334 14.7015 6.07511 14.7015 6.05632C14.7015 5.96484 14.7015 5.87337 14.7015 5.78189C14.7017 5.02252 14.7019 4.26316 14.7023 3.50379C14.7363 3.49231 14.7703 3.48086 14.8043 3.46943C14.8139 3.46621 14.8234 3.46298 14.8333 3.45966C14.9106 3.43374 14.9882 3.41247 15.0679 3.39498C15.0811 3.39206 15.0942 3.38913 15.1077 3.38611C15.2474 3.35592 15.388 3.33507 15.5299 3.31829C15.5454 3.31639 15.5609 3.3145 15.5768 3.31254C16.1002 3.26105 16.6114 3.34701 17.1088 3.50396Z" fill="#31D635"/>
<path d="M15.1765 3.56044C15.1851 4.97584 15.1919 6.39126 15.1933 7.80669C15.1933 7.82372 15.1934 7.84075 15.1934 7.8583C15.1934 7.87527 15.1934 7.89225 15.1934 7.90973C15.1936 8.02959 15.1938 8.14944 15.1941 8.26929C15.1944 8.41576 15.1946 8.56222 15.1946 8.70869C15.1946 8.7837 15.1947 8.85872 15.195 8.93373C15.1952 9.00255 15.1952 9.07137 15.1951 9.14019C15.1951 9.16514 15.1951 9.1901 15.1953 9.21505C15.1954 9.24896 15.1954 9.28286 15.1952 9.31676C15.1953 9.32649 15.1954 9.33621 15.1956 9.34623C15.1949 9.41511 15.1804 9.46122 15.1492 9.52138C15.1121 9.55242 15.0883 9.56128 15.0407 9.56838C14.9877 9.56081 14.9584 9.54063 14.9168 9.50771C14.8965 9.46717 14.9014 9.43088 14.9014 9.38561C14.9014 9.3757 14.9014 9.36579 14.9014 9.35558C14.9013 9.32203 14.9014 9.28848 14.9014 9.25493C14.9014 9.23077 14.9014 9.20661 14.9014 9.18245C14.9014 9.11579 14.9014 9.04914 14.9015 8.98248C14.9016 8.9107 14.9015 8.83892 14.9015 8.76714C14.9015 8.64269 14.9016 8.51824 14.9016 8.39379C14.9018 8.21385 14.9018 8.03391 14.9018 7.85397C14.9018 7.56206 14.9019 7.27015 14.9021 6.97824C14.9022 6.69462 14.9023 6.41099 14.9023 6.12736C14.9023 6.10989 14.9023 6.09241 14.9024 6.07441C14.9024 5.98677 14.9024 5.89912 14.9024 5.81148C14.9025 5.08392 14.9028 4.35636 14.9031 3.6288C14.9358 3.61728 14.9686 3.60591 15.0014 3.59462C15.0152 3.58973 15.0152 3.58973 15.0293 3.58474C15.0799 3.56745 15.1229 3.55628 15.1765 3.56044Z" fill="#2A962C"/>
<g clip-path="url(#clip1_447_18242)">
<path d="M15.1405 7.00002C15.241 7.04694 15.3284 7.1089 15.4177 7.17404C15.475 7.21556 15.533 7.25588 15.5912 7.2961C15.6833 7.3598 15.7753 7.42378 15.867 7.488C15.9992 7.58027 16.1322 7.6712 16.2655 7.76174C16.4649 7.89722 16.663 8.03442 16.8607 8.17235C17.0132 8.27864 17.1664 8.38382 17.3202 8.4883C17.5195 8.62379 17.7177 8.76099 17.9154 8.89892C18.0679 9.0052 18.2211 9.11038 18.3749 9.21486C18.5742 9.35035 18.7723 9.48755 18.97 9.62548C19.1226 9.73177 19.2758 9.83694 19.4295 9.94143C19.6287 10.0767 19.8266 10.2137 20.024 10.3515C20.2049 10.4776 20.3869 10.6021 20.5696 10.7255C20.6273 10.7646 20.6848 10.804 20.742 10.8438C20.7598 10.856 20.7776 10.8683 20.7959 10.8809C20.8125 10.8928 20.8291 10.9046 20.8461 10.9168C20.8606 10.9271 20.8751 10.9373 20.89 10.9479C20.9573 11.01 20.9958 11.0732 21.0087 11.1644C21.0088 11.1873 21.0088 11.2101 21.0089 11.2336C21.0091 11.2601 21.0094 11.2866 21.0096 11.3139C21.0095 11.3428 21.0094 11.3718 21.0093 11.4017C21.0094 11.4325 21.0096 11.4634 21.0097 11.4952C21.0102 11.5808 21.0102 11.6665 21.0101 11.7521C21.0101 11.8445 21.0105 11.9369 21.0108 12.0292C21.0114 12.2102 21.0116 12.3912 21.0116 12.5722C21.0116 12.7193 21.0118 12.8665 21.012 13.0136C21.0126 13.4307 21.0129 13.8479 21.0129 14.2651C21.0129 14.2876 21.0129 14.3101 21.0129 14.3332C21.0129 14.3557 21.0129 14.3783 21.0129 14.4015C21.0128 14.7663 21.0135 15.1312 21.0145 15.4961C21.0155 15.8708 21.016 16.2455 21.0159 16.6202C21.0159 16.8305 21.0161 17.0408 21.0169 17.2512C21.0175 17.4303 21.0177 17.6094 21.0172 17.7885C21.017 17.8799 21.017 17.9712 21.0176 18.0626C21.0181 18.1463 21.018 18.23 21.0174 18.3137C21.0172 18.3582 21.0178 18.4026 21.0183 18.4471C21.0161 18.6284 20.9832 18.7474 20.8592 18.8828C20.7599 18.9687 20.6654 19.003 20.5349 19.0027C20.5004 19.0027 20.5004 19.0027 20.4652 19.0027C20.4405 19.0026 20.4157 19.0024 20.3902 19.0023C20.3521 19.0023 20.3521 19.0023 20.3133 19.0022C20.2321 19.0021 20.1509 19.0018 20.0697 19.0015C20.0147 19.0014 19.9597 19.0013 19.9047 19.0012C19.7697 19.0009 19.6348 19.0005 19.4999 19C19.4997 18.9539 19.4997 18.9539 19.4996 18.9069C19.4978 18.1772 19.4957 17.4474 19.4933 16.7177C19.493 16.6278 19.4927 16.538 19.4924 16.4481C19.4924 16.4302 19.4923 16.4124 19.4922 16.3939C19.4913 16.1044 19.4905 15.8149 19.4898 15.5255C19.4891 15.2283 19.4882 14.9312 19.4871 14.6341C19.4865 14.4508 19.486 14.2675 19.4856 14.0842C19.4853 13.9436 19.4848 13.8029 19.4842 13.6623C19.484 13.6047 19.4839 13.547 19.4838 13.4894C19.4837 13.4107 19.4834 13.3319 19.4829 13.2532C19.483 13.2191 19.483 13.2191 19.4831 13.1843C19.4817 13.011 19.4783 12.821 19.3563 12.6865C19.3437 12.6719 19.331 12.6572 19.318 12.642C19.1463 12.5098 18.9538 12.5213 18.7471 12.5223C18.7134 12.5223 18.6797 12.5221 18.646 12.522C18.5538 12.5217 18.4616 12.5219 18.3694 12.5221C18.2698 12.5222 18.1703 12.522 18.0707 12.5218C17.8758 12.5215 17.6809 12.5216 17.4859 12.5218C17.3275 12.5219 17.1691 12.5219 17.0106 12.5219C16.9881 12.5219 16.9655 12.5218 16.9423 12.5218C16.8965 12.5218 16.8506 12.5218 16.8048 12.5218C16.3752 12.5216 15.9456 12.5218 15.516 12.5222C15.1474 12.5225 14.7789 12.5224 14.4103 12.5221C13.9822 12.5217 13.5541 12.5216 13.126 12.5218C13.0804 12.5218 13.0347 12.5218 12.9891 12.5219C12.9666 12.5219 12.9442 12.5219 12.921 12.5219C12.7628 12.522 12.6046 12.5219 12.4463 12.5217C12.2535 12.5215 12.0606 12.5215 11.8678 12.5219C11.7694 12.5221 11.671 12.5222 11.5727 12.5219C11.4826 12.5217 11.3925 12.5218 11.3024 12.5222C11.2698 12.5223 11.2373 12.5223 11.2047 12.5221C10.9262 12.5203 10.9262 12.5203 10.6817 12.642C10.669 12.6567 10.6564 12.6714 10.6434 12.6865C10.6304 12.7009 10.6174 12.7152 10.604 12.7299C10.5132 12.8885 10.5164 13.0752 10.5168 13.2532C10.5166 13.2779 10.5165 13.3025 10.5164 13.328C10.516 13.4102 10.5159 13.4925 10.5158 13.5747C10.5156 13.6339 10.5154 13.693 10.5151 13.7522C10.5146 13.8793 10.5142 14.0064 10.514 14.1335C10.5137 14.3173 10.5131 14.501 10.5124 14.6848C10.5113 14.983 10.5105 15.2812 10.5097 15.5794C10.509 15.869 10.5082 16.1586 10.5073 16.4481C10.5072 16.466 10.5072 16.4839 10.5071 16.5023C10.5068 16.5919 10.5065 16.6815 10.5062 16.7712C10.5038 17.5141 10.5017 18.2571 10.4999 19C10.3397 19.0024 10.1796 19.004 10.0195 19.0052C9.96507 19.0056 9.91065 19.0063 9.85623 19.0071C9.7778 19.0082 9.69938 19.0088 9.62095 19.0092C9.5968 19.0097 9.57264 19.0101 9.54776 19.0106C9.37543 19.0107 9.24109 18.9826 9.11567 18.8586C9.105 18.8429 9.09434 18.8272 9.08335 18.8111C9.07226 18.7953 9.06117 18.7796 9.04975 18.7634C9.00138 18.6819 8.99687 18.6151 8.99664 18.5224C8.99652 18.4961 8.99641 18.4697 8.99628 18.4426C8.99627 18.4136 8.99626 18.3845 8.99625 18.3546C8.99615 18.3238 8.99604 18.2931 8.99594 18.2614C8.99566 18.1758 8.99552 18.0902 8.99542 18.0047C8.99528 17.9124 8.995 17.8202 8.99475 17.728C8.99418 17.5052 8.99384 17.2824 8.99353 17.0596C8.99345 16.9967 8.99335 16.9338 8.99326 16.8709C8.99267 16.4803 8.99215 16.0898 8.99186 15.6992C8.99179 15.6087 8.99172 15.5183 8.99165 15.4278C8.99163 15.4053 8.99161 15.3828 8.9916 15.3597C8.9913 14.9953 8.99052 14.6309 8.98954 14.2665C8.98855 13.8925 8.988 13.5185 8.98788 13.1445C8.9878 12.9345 8.98752 12.7245 8.98675 12.5144C8.98609 12.3356 8.98583 12.1567 8.9861 11.9779C8.98622 11.8866 8.98615 11.7954 8.98557 11.7041C8.98495 11.6052 8.98523 11.5063 8.9856 11.4073C8.98528 11.3785 8.98495 11.3497 8.98462 11.32C8.98618 11.1524 9.00153 11.0616 9.11704 10.9375C9.17789 10.8874 9.17789 10.8874 9.24247 10.8461C9.26631 10.8305 9.29014 10.815 9.3147 10.799C9.33939 10.7833 9.36407 10.7676 9.3895 10.7515C9.43818 10.7201 9.48683 10.6886 9.53544 10.6571C9.55947 10.6415 9.5835 10.626 9.60826 10.6099C9.69979 10.5491 9.78826 10.4845 9.87675 10.4193C9.9673 10.3531 10.0599 10.2901 10.1527 10.2271C10.1917 10.2005 10.2308 10.1739 10.2698 10.1472C10.2889 10.1342 10.308 10.1212 10.3277 10.1078C10.4067 10.054 10.4855 9.99994 10.5643 9.94582C10.5792 9.93561 10.594 9.92539 10.6094 9.91487C10.7461 9.82077 10.8822 9.7258 11.0184 9.63088C11.2176 9.49206 11.4177 9.35473 11.6185 9.21828C11.7737 9.11268 11.928 9.00586 12.0819 8.89846C12.2781 8.76155 12.4753 8.62617 12.6732 8.49169C12.8284 8.38611 12.9827 8.27929 13.1366 8.1719C13.3327 8.03507 13.5298 7.89976 13.7276 7.76538C13.8863 7.65737 14.0441 7.54793 14.2015 7.43801C14.3559 7.33026 14.5107 7.22313 14.6673 7.11867C14.6816 7.10913 14.6959 7.09959 14.7107 7.08976C14.857 6.99288 14.9642 6.97081 15.1405 7.00002Z" fill="black"/>
<path d="M15.4967 16.487C15.5263 16.487 15.5263 16.487 15.5564 16.487C15.5882 16.4873 15.5882 16.4873 15.6206 16.4877C15.6532 16.4878 15.6532 16.4878 15.6865 16.4879C15.756 16.4882 15.8255 16.4888 15.895 16.4894C15.9421 16.4896 15.9892 16.4898 16.0363 16.49C16.1518 16.4905 16.2673 16.4913 16.3828 16.4923C16.3834 16.5223 16.384 16.5522 16.3846 16.5831C16.3859 16.6231 16.3873 16.6632 16.3886 16.7032C16.389 16.7229 16.3893 16.7426 16.3896 16.7628C16.3956 16.9159 16.4265 17.057 16.5427 17.1647C16.6652 17.222 16.7677 17.2372 16.8984 17.1954C16.9988 17.1396 17.0535 17.0706 17.0859 16.961C17.0947 16.8806 17.0978 16.8002 17.1005 16.7193C17.1015 16.6975 17.1024 16.6757 17.1033 16.6532C17.1055 16.5996 17.1075 16.5459 17.1093 16.4923C17.247 16.4894 17.3845 16.4873 17.5222 16.4858C17.569 16.4853 17.6158 16.4845 17.6625 16.4834C17.7299 16.482 17.7973 16.4814 17.8646 16.4808C17.8855 16.4802 17.9063 16.4796 17.9277 16.479C18.0293 16.479 18.0962 16.4834 18.1769 16.5487C18.2712 16.6485 18.2615 16.7279 18.2619 16.8595C18.2621 16.8806 18.2622 16.9016 18.2624 16.9233C18.2629 16.9931 18.2631 17.0629 18.2634 17.1328C18.2635 17.1566 18.2636 17.1804 18.2636 17.205C18.2641 17.3311 18.2645 17.4573 18.2647 17.5834C18.265 17.7137 18.2658 17.844 18.2667 17.9743C18.2673 18.0745 18.2675 18.1747 18.2676 18.2748C18.2677 18.3229 18.268 18.3709 18.2684 18.4189C18.269 18.4862 18.269 18.5534 18.2688 18.6207C18.2692 18.6504 18.2692 18.6504 18.2697 18.6807C18.2686 18.8058 18.2475 18.8776 18.164 18.9767C18.1074 19.0049 18.0714 19.0033 18.0082 19.0037C17.9852 19.0039 17.9623 19.0041 17.9386 19.0043C17.9133 19.0044 17.888 19.0045 17.862 19.0046C17.8221 19.0049 17.8221 19.0049 17.7815 19.0052C17.6933 19.0058 17.605 19.0062 17.5168 19.0065C17.4717 19.0067 17.4717 19.0067 17.4257 19.0069C17.2994 19.0074 17.1731 19.0078 17.0468 19.0081C16.8657 19.0085 16.6847 19.0092 16.5037 19.0106C16.3611 19.0116 16.2184 19.012 16.0758 19.0121C16.0151 19.0123 15.9544 19.0126 15.8938 19.0132C15.8089 19.0139 15.7241 19.0139 15.6392 19.0138C15.6141 19.0142 15.589 19.0145 15.563 19.0149C15.3929 19.0135 15.3929 19.0135 15.3013 18.945C15.2255 18.8369 15.2306 18.7383 15.2302 18.6111C15.23 18.5905 15.2299 18.5699 15.2297 18.5487C15.2293 18.4805 15.229 18.4123 15.2288 18.3441C15.2287 18.3208 15.2286 18.2975 15.2285 18.2735C15.228 18.1503 15.2276 18.027 15.2274 17.9038C15.2272 17.7765 15.2264 17.6492 15.2254 17.5219C15.2248 17.424 15.2246 17.3261 15.2245 17.2282C15.2244 17.1813 15.2241 17.1344 15.2237 17.0875C15.2231 17.0218 15.2232 16.9561 15.2233 16.8904C15.223 16.8711 15.2227 16.8518 15.2224 16.8318C15.2235 16.7079 15.2455 16.6372 15.3281 16.5392C15.4005 16.4909 15.415 16.4865 15.4967 16.487Z" fill="black"/>
<path d="M12.0019 16.4897C12.0314 16.4897 12.0314 16.4897 12.0616 16.4897C12.0935 16.4898 12.0935 16.4898 12.1261 16.49C12.1479 16.4901 12.1697 16.4901 12.1921 16.4901C12.2619 16.4903 12.3316 16.4905 12.4013 16.4908C12.4485 16.491 12.4957 16.4911 12.5429 16.4912C12.6588 16.4914 12.7747 16.4918 12.8906 16.4923C12.8915 16.5291 12.8924 16.5659 12.8933 16.6026C12.8938 16.6243 12.8944 16.646 12.895 16.6684C12.896 16.7135 12.8969 16.7585 12.8976 16.8036C12.9031 16.9563 12.9296 17.0523 13.0454 17.1602C13.144 17.2189 13.2193 17.2292 13.3325 17.2095C13.4119 17.1873 13.4623 17.1569 13.5234 17.1017C13.5944 16.9691 13.6059 16.8535 13.6098 16.7047C13.6106 16.6842 13.6114 16.6637 13.6122 16.6426C13.6142 16.5925 13.6157 16.5424 13.6171 16.4923C13.7552 16.49 13.8932 16.4883 14.0313 16.4872C14.0782 16.4867 14.1252 16.4861 14.1721 16.4852C14.2396 16.4841 14.3072 16.4836 14.3747 16.4832C14.3957 16.4827 14.4166 16.4822 14.4382 16.4817C14.534 16.4817 14.5876 16.484 14.6713 16.5339C14.7711 16.6438 14.7724 16.7397 14.772 16.8844C14.7721 16.905 14.7723 16.9256 14.7724 16.9469C14.7727 17.0151 14.7727 17.0832 14.7726 17.1514C14.7727 17.1988 14.7728 17.2462 14.7729 17.2936C14.7731 17.393 14.7731 17.4923 14.773 17.5917C14.7728 17.719 14.7732 17.8463 14.7738 17.9736C14.7741 18.0715 14.7741 18.1694 14.7741 18.2673C14.7741 18.3142 14.7742 18.3612 14.7744 18.4081C14.7747 18.4738 14.7746 18.5394 14.7743 18.605C14.7745 18.6244 14.7747 18.6438 14.7748 18.6637C14.7737 18.7938 14.7477 18.8653 14.6647 18.9675C14.612 19.0108 14.5808 19.0091 14.5132 19.0094C14.4902 19.0096 14.4672 19.0099 14.4435 19.0102C14.4183 19.0101 14.3931 19.01 14.3671 19.01C14.3405 19.0102 14.314 19.0104 14.2866 19.0106C14.1985 19.0111 14.1104 19.0111 14.0223 19.0111C13.9612 19.0113 13.9001 19.0115 13.8391 19.0117C13.7109 19.012 13.5827 19.012 13.4545 19.0119C13.3064 19.0117 13.1583 19.0122 13.0102 19.0131C12.8677 19.0139 12.7252 19.0141 12.5827 19.014C12.5221 19.014 12.4615 19.0142 12.4008 19.0147C12.3161 19.0152 12.2314 19.015 12.1467 19.0145C12.109 19.015 12.109 19.015 12.0706 19.0155C11.9002 19.0136 11.9002 19.0136 11.8091 18.9436C11.7343 18.8394 11.7382 18.7577 11.7376 18.6329C11.7374 18.6118 11.7372 18.5908 11.737 18.5691C11.7365 18.4993 11.7361 18.4295 11.7357 18.3596C11.7356 18.3358 11.7355 18.312 11.7353 18.2874C11.7347 18.1613 11.7343 18.0351 11.7339 17.909C11.7335 17.7787 11.7325 17.6484 11.7313 17.5181C11.7305 17.4179 11.7302 17.3177 11.7301 17.2176C11.7299 17.1695 11.7296 17.1215 11.729 17.0735C11.7283 17.0062 11.7283 16.939 11.7285 16.8717C11.7281 16.8519 11.7277 16.8321 11.7273 16.8117C11.7283 16.7136 11.7359 16.6518 11.7987 16.5741C11.8728 16.5028 11.9028 16.4894 12.0019 16.4897Z" fill="black"/>
<path d="M13.8788 13.49C13.9001 13.4901 13.9213 13.4901 13.9432 13.4901C14.0113 13.4903 14.0793 13.4905 14.1474 13.4908C14.1935 13.491 14.2396 13.4911 14.2857 13.4912C14.3988 13.4914 14.5119 13.4918 14.6249 13.4923C14.6263 13.518 14.6277 13.5436 14.6291 13.5701C14.631 13.6041 14.633 13.6382 14.6349 13.6722C14.6358 13.6891 14.6367 13.7059 14.6376 13.7233C14.6474 13.8902 14.6676 14.0198 14.7802 14.1486C14.8783 14.2067 14.9567 14.226 15.0703 14.2189C15.1685 14.1836 15.2414 14.1383 15.3046 14.0548C15.3505 13.9293 15.3569 13.8055 15.3644 13.6729C15.3655 13.6555 15.3665 13.6381 15.3675 13.6202C15.3701 13.5776 15.3725 13.5349 15.3749 13.4923C15.5092 13.49 15.6435 13.4883 15.7778 13.4872C15.8234 13.4867 15.8691 13.4861 15.9147 13.4852C15.9805 13.4841 16.0462 13.4836 16.1119 13.4832C16.1322 13.4827 16.1525 13.4822 16.1734 13.4817C16.3049 13.4816 16.3756 13.5001 16.4765 13.5861C16.5159 13.6649 16.5038 13.7541 16.5041 13.8408C16.5043 13.8623 16.5044 13.8839 16.5046 13.906C16.505 13.9775 16.5053 14.049 16.5055 14.1205C16.5056 14.1448 16.5057 14.1692 16.5058 14.1943C16.5063 14.3233 16.5066 14.4523 16.5069 14.5813C16.5071 14.7147 16.5079 14.848 16.5089 14.9814C16.5095 15.0838 16.5097 15.1863 16.5098 15.2887C16.5099 15.3379 16.5101 15.387 16.5106 15.4362C16.5111 15.505 16.5111 15.5738 16.511 15.6425C16.5114 15.673 16.5114 15.673 16.5119 15.7041C16.511 15.7997 16.5075 15.8475 16.4553 15.9302C16.3844 15.9973 16.3464 16.0031 16.2513 16.0036C16.2171 16.0038 16.2171 16.0038 16.1823 16.0041C16.1572 16.0041 16.1321 16.0042 16.1063 16.0043C16.08 16.0044 16.0536 16.0046 16.0265 16.0047C15.939 16.0052 15.8516 16.0055 15.7641 16.0057C15.7343 16.0058 15.7045 16.0059 15.6738 16.006C15.5324 16.0064 15.3909 16.0068 15.2495 16.007C15.0862 16.0072 14.923 16.0078 14.7597 16.0088C14.6183 16.0096 14.4769 16.0098 14.3355 16.0099C14.2753 16.01 14.2152 16.0103 14.155 16.0108C14.0709 16.0113 13.9868 16.0113 13.9027 16.0111C13.8778 16.0114 13.8529 16.0117 13.8272 16.012C13.6582 16.0109 13.6582 16.0109 13.5671 15.9555C13.4834 15.8615 13.496 15.7719 13.4954 15.6516C13.4952 15.6301 13.495 15.6086 13.4948 15.5864C13.4943 15.5149 13.4939 15.4435 13.4935 15.372C13.4934 15.3476 13.4933 15.3232 13.4932 15.2981C13.4925 15.1691 13.4921 15.0401 13.4917 14.9111C13.4914 14.7778 13.4903 14.6444 13.4891 14.5111C13.4883 14.4086 13.488 14.3062 13.4879 14.2037C13.4878 14.1546 13.4874 14.1054 13.4868 14.0562C13.4861 13.9874 13.4861 13.9187 13.4863 13.8499C13.4859 13.8296 13.4855 13.8092 13.4851 13.7883C13.4862 13.6851 13.4898 13.6456 13.5565 13.5622C13.6628 13.4808 13.7491 13.4893 13.8788 13.49Z" fill="black"/>
</g>
</g>
<defs>
<clipPath id="clip0_447_18242">
<rect width="31" height="31" fill="white"/>
</clipPath>
<clipPath id="clip1_447_18242">
<rect width="12" height="12" fill="white" transform="translate(9 7)"/>
</clipPath>
</defs>
</svg>
