<svg width="32" height="31" viewBox="0 0 32 31" fill="none" xmlns="http://www.w3.org/2000/svg">
<path fill-rule="evenodd" clip-rule="evenodd" d="M28.1085 11.92L30.8775 14.5655C31.139 14.8337 31.1313 15.2516 30.86 15.5108C30.5887 15.77 30.1513 15.7774 29.8706 15.5275L28.3175 14.0437V28.3556C28.3175 28.7769 28.1423 29.1808 27.8306 29.4787C27.5188 29.7765 27.096 29.9438 26.6551 29.9438H20.1625C19.2444 29.9438 18.5002 29.2328 18.5002 28.3556V19.2802C18.5002 19.1549 18.3938 19.0533 18.2627 19.0533H13.5131C13.382 19.0533 13.2757 19.1549 13.2757 19.2802V28.3556C13.2757 29.2328 12.5314 29.9438 11.6133 29.9438H5.12783C4.20974 29.9438 3.46549 29.2328 3.46549 28.3556V14.0368L1.90527 15.5275C1.62456 15.7774 1.18713 15.77 0.91582 15.5108C0.644515 15.2516 0.636797 14.8337 0.898363 14.5655L3.67447 11.9132L14.7243 1.36751C15.036 1.06963 15.4589 0.902283 15.8998 0.902283C16.3407 0.902283 16.7635 1.06963 17.0753 1.36751L28.1085 11.92ZM26.6552 28.5826C26.7863 28.5826 26.8926 28.481 26.8926 28.3557L26.8903 12.6824L16.0542 2.32958C15.9616 2.24161 15.812 2.24161 15.7193 2.32958L4.89039 12.6779V28.3557C4.89039 28.481 4.99671 28.5826 5.12786 28.5826H11.6134C11.7445 28.5826 11.8508 28.481 11.8508 28.3557V19.2803C11.8508 18.4031 12.5951 17.6921 13.5132 17.6921H18.2627C19.1808 17.6921 19.9251 18.4031 19.9251 19.2803V28.3557C19.9251 28.481 20.0314 28.5826 20.1625 28.5826H26.6552Z" fill="#1E1D1D"/>
<path d="M30.8775 14.5655L31.2555 14.1968L31.249 14.1901L31.2422 14.1837L30.8775 14.5655ZM28.1085 11.92L27.7435 12.3016L27.7437 12.3018L28.1085 11.92ZM30.86 15.5108L30.4952 15.129V15.129L30.86 15.5108ZM29.8706 15.5275L29.5058 15.9093L29.5125 15.9157L29.5195 15.9219L29.8706 15.5275ZM28.3175 14.0437L28.6822 13.6619L27.7894 12.8089V14.0437H28.3175ZM27.8306 29.4787L27.4658 29.0969L27.4658 29.0969L27.8306 29.4787ZM3.46549 14.0368H3.99352V12.8021L3.10073 13.6551L3.46549 14.0368ZM1.90527 15.5275L2.25637 15.9219L2.26331 15.9157L2.27003 15.9093L1.90527 15.5275ZM0.91582 15.5108L0.551057 15.8926L0.551058 15.8926L0.91582 15.5108ZM0.898363 14.5655L0.5336 14.1837L0.52686 14.1901L0.520352 14.1968L0.898363 14.5655ZM3.67447 11.9132L3.30991 11.5312L3.30971 11.5314L3.67447 11.9132ZM14.7243 1.36751L15.0888 1.7495L15.0891 1.74928L14.7243 1.36751ZM17.0753 1.36751L17.4403 0.985922L17.4401 0.985744L17.0753 1.36751ZM26.8926 28.3557H27.4207V28.3556L26.8926 28.3557ZM26.8903 12.6824L27.4183 12.6823L27.4183 12.4566L27.255 12.3006L26.8903 12.6824ZM16.0542 2.32958L16.4189 1.94779L16.4178 1.94671L16.0542 2.32958ZM15.7193 2.32958L15.3557 1.94671L15.3545 1.94783L15.7193 2.32958ZM4.89039 12.6779L4.52558 12.2961L4.36236 12.4521V12.6779H4.89039ZM31.2422 14.1837L28.4732 11.5382L27.7437 12.3018L30.5127 14.9473L31.2422 14.1837ZM31.2248 15.8926C31.7079 15.431 31.7227 14.6759 31.2555 14.1968L30.4995 14.9342C30.5303 14.9658 30.5412 15.0004 30.5406 15.0318C30.54 15.0631 30.5278 15.0979 30.4952 15.129L31.2248 15.8926ZM29.5195 15.9219C30.0051 16.3542 30.754 16.3423 31.2248 15.8926L30.4952 15.129C30.4234 15.1977 30.2974 15.2006 30.2217 15.1331L29.5195 15.9219ZM27.9527 14.4254L29.5058 15.9093L30.2353 15.1457L28.6822 13.6619L27.9527 14.4254ZM28.8455 28.3556V14.0437H27.7894V28.3556H28.8455ZM28.1953 29.8605C28.6086 29.4656 28.8455 28.9249 28.8455 28.3556H27.7894C27.7894 28.6288 27.6761 28.896 27.4658 29.0969L28.1953 29.8605ZM26.6551 30.4719C27.2285 30.4719 27.7829 30.2545 28.1953 29.8605L27.4658 29.0969C27.2547 29.2985 26.9635 29.4158 26.6551 29.4158V30.4719ZM20.1625 30.4719H26.6551V29.4158H20.1625V30.4719ZM17.9721 28.3556C17.9721 29.5468 18.9758 30.4719 20.1625 30.4719V29.4158C19.5131 29.4158 19.0282 28.9187 19.0282 28.3556H17.9721ZM17.9721 19.2802V28.3556H19.0282V19.2802H17.9721ZM18.2627 19.5813C18.1252 19.5813 17.9721 19.469 17.9721 19.2802H19.0282C19.0282 18.8408 18.6625 18.5253 18.2627 18.5253V19.5813ZM13.5131 19.5813H18.2627V18.5253H13.5131V19.5813ZM13.8037 19.2802C13.8037 19.4689 13.6506 19.5813 13.5131 19.5813V18.5253C13.1133 18.5253 12.7476 18.8408 12.7476 19.2802H13.8037ZM13.8037 28.3556V19.2802H12.7476V28.3556H13.8037ZM11.6133 30.4719C12.8001 30.4719 13.8037 29.5468 13.8037 28.3556H12.7476C12.7476 28.9187 12.2627 29.4158 11.6133 29.4158V30.4719ZM5.12783 30.4719H11.6133V29.4158H5.12783V30.4719ZM2.93746 28.3556C2.93746 29.5468 3.94108 30.4719 5.12783 30.4719V29.4158C4.47841 29.4158 3.99352 28.9187 3.99352 28.3556H2.93746ZM2.93746 14.0368V28.3556H3.99352V14.0368H2.93746ZM2.27003 15.9093L3.83025 14.4186L3.10073 13.6551L1.5405 15.1457L2.27003 15.9093ZM0.551058 15.8926C1.02178 16.3423 1.77072 16.3542 2.25637 15.9219L1.55416 15.1331C1.47839 15.2006 1.35247 15.1977 1.28058 15.129L0.551058 15.8926ZM0.520352 14.1968C0.0531189 14.6759 0.0679484 15.431 0.551057 15.8926L1.28058 15.129C1.24804 15.0979 1.23578 15.0631 1.2352 15.0318C1.23462 15.0004 1.24555 14.9658 1.27637 14.9342L0.520352 14.1968ZM3.30971 11.5314L0.5336 14.1837L1.26312 14.9473L4.03923 12.295L3.30971 11.5314ZM14.3597 0.98553L3.30991 11.5312L4.03903 12.2952L15.0888 1.7495L14.3597 0.98553ZM15.8998 0.374254C15.3264 0.374254 14.7719 0.591661 14.3595 0.985744L15.0891 1.74928C15.3001 1.54761 15.5914 1.43031 15.8998 1.43031V0.374254ZM17.4401 0.985744C17.0276 0.591661 16.4732 0.374254 15.8998 0.374254V1.43031C16.2082 1.43031 16.4994 1.54761 16.7105 1.74928L17.4401 0.985744ZM28.4734 11.5384L17.4403 0.985922L16.7103 1.74911L27.7435 12.3016L28.4734 11.5384ZM26.3646 28.3557C26.3646 28.167 26.5177 28.0546 26.6552 28.0546V29.1106C27.055 29.1106 27.4207 28.7951 27.4207 28.3557H26.3646ZM26.3622 12.6825L26.3646 28.3558L27.4207 28.3556L27.4183 12.6823L26.3622 12.6825ZM15.6894 2.71137L26.5255 13.0642L27.255 12.3006L16.4189 1.94779L15.6894 2.71137ZM16.083 2.71245C15.9718 2.81803 15.8017 2.81803 15.6906 2.71245L16.4178 1.94671C16.1214 1.6652 15.6521 1.6652 15.3557 1.94671L16.083 2.71245ZM5.25519 13.0596L16.0841 2.71133L15.3545 1.94783L4.52558 12.2961L5.25519 13.0596ZM5.41842 28.3557V12.6779H4.36236V28.3557H5.41842ZM5.12786 28.0546C5.26537 28.0546 5.41842 28.167 5.41842 28.3557H4.36236C4.36236 28.7951 4.72805 29.1106 5.12786 29.1106V28.0546ZM11.6134 28.0546H5.12786V29.1106H11.6134V28.0546ZM11.3228 28.3557C11.3228 28.167 11.4759 28.0546 11.6134 28.0546V29.1106C12.0132 29.1106 12.3789 28.7951 12.3789 28.3557H11.3228ZM11.3228 19.2803V28.3557H12.3789V19.2803H11.3228ZM13.5132 17.164C12.3264 17.164 11.3228 18.0891 11.3228 19.2803H12.3789C12.3789 18.7172 12.8638 18.2201 13.5132 18.2201V17.164ZM18.2627 17.164H13.5132V18.2201H18.2627V17.164ZM20.4531 19.2803C20.4531 18.0891 19.4495 17.164 18.2627 17.164V18.2201C18.9121 18.2201 19.397 18.7172 19.397 19.2803H20.4531ZM20.4531 28.3557V19.2803H19.397V28.3557H20.4531ZM20.1625 28.0546C20.3 28.0546 20.4531 28.167 20.4531 28.3557H19.397C19.397 28.7951 19.7627 29.1106 20.1625 29.1106V28.0546ZM26.6552 28.0546H20.1625V29.1106H26.6552V28.0546Z" fill="#1E1D1D"/>
</svg>
