<svg width="26" height="26" viewBox="0 0 26 26" fill="none" xmlns="http://www.w3.org/2000/svg">
<g clip-path="url(#clip0_1423_4813)">
<path d="M0.625 17.0245H1.25V12.8019C1.25 12.3058 1.44922 11.8292 1.80078 11.4777L5.70312 7.57532C6.05469 7.22375 6.53125 7.02454 7.02734 7.02454H8.75V5.14954C8.75 4.11438 9.58984 3.27454 10.625 3.27454H23.125C24.1602 3.27454 25 4.11438 25 5.14954V17.6495C25 18.6847 24.1602 19.5245 23.125 19.5245H22.5C22.5 21.5948 20.8203 23.2745 18.75 23.2745C16.6797 23.2745 15 21.5948 15 19.5245H10C10 21.5948 8.32031 23.2745 6.25 23.2745C4.17969 23.2745 2.5 21.5948 2.5 19.5245H0.625C0.28125 19.5245 0 19.2433 0 18.8995V17.6495C0 17.3058 0.28125 17.0245 0.625 17.0245ZM18.75 21.3995C19.7852 21.3995 20.625 20.5597 20.625 19.5245C20.625 18.4894 19.7852 17.6495 18.75 17.6495C17.7148 17.6495 16.875 18.4894 16.875 19.5245C16.875 20.5597 17.7148 21.3995 18.75 21.3995ZM6.25 21.3995C7.28516 21.3995 8.125 20.5597 8.125 19.5245C8.125 18.4894 7.28516 17.6495 6.25 17.6495C5.21484 17.6495 4.375 18.4894 4.375 19.5245C4.375 20.5597 5.21484 21.3995 6.25 21.3995ZM3.125 13.2745H8.75V8.89954H7.02734L3.125 12.8019V13.2745Z" fill="black"/>
</g>
<defs>
<clipPath id="clip0_1423_4813">
<rect width="25" height="25" fill="white" transform="translate(0.0322266 0.774536)"/>
</clipPath>
</defs>
</svg>
