<svg width="18" height="18" viewBox="0 0 18 18" fill="none" xmlns="http://www.w3.org/2000/svg">
<path d="M6.0129 1.56317H3.59483C3.16729 1.56317 2.75726 1.73301 2.45495 2.03533C2.15263 2.33765 1.98279 2.74768 1.98279 3.17522V5.59329M16.4912 5.59329V3.17522C16.4912 2.74768 16.3214 2.33765 16.019 2.03533C15.7167 1.73301 15.3067 1.56317 14.8792 1.56317H12.4611M12.4611 16.0716H14.8792C15.3067 16.0716 15.7167 15.9017 16.019 15.5994C16.3214 15.2971 16.4912 14.8871 16.4912 14.4595V12.0415M1.98279 12.0415V14.4595C1.98279 14.8871 2.15263 15.2971 2.45495 15.5994C2.75726 15.9017 3.16729 16.0716 3.59483 16.0716H6.0129" stroke="black" stroke-width="2.03627" stroke-linecap="round" stroke-linejoin="round"/>
</svg>
