<!DOCTYPE svg PUBLIC "-//W3C//DTD SVG 1.1//EN" "http://www.w3.org/Graphics/SVG/1.1/DTD/svg11.dtd">
<!-- Uploaded to: SVG Repo, www.svgrepo.com, Transformed by: SVG Repo Mixer Tools -->
<svg height="800px" width="800px" version="1.1" id="Layer_1" xmlns="http://www.w3.org/2000/svg" xmlns:xlink="http://www.w3.org/1999/xlink" viewBox="0 0 512.032 512.032" xml:space="preserve" fill="#000000">
<g id="SVGRepo_bgCarrier" stroke-width="0"/>
<g id="SVGRepo_tracerCarrier" stroke-linecap="round" stroke-linejoin="round"/>
<g id="SVGRepo_iconCarrier"> <polygon style="fill:#222077;" points="294.88,512.032 262.88,512.032 262.88,445.6 141.92,445.6 141.92,301.84 407.04,301.84 407.04,219.376 246.64,219.376 246.64,187.376 439.04,187.376 439.04,333.84 173.92,333.84 173.92,413.6 294.88,413.6 "/> <path style="fill:#38C6B4;" d="M158.416,0c-51.904,0-85.424,34.736-85.424,88.496c0,44.8,67.28,134.752,74.96,144.816l10.448,13.824 l10.512-13.824c7.616-10.128,74.896-100.08,74.896-144.816C243.824,34.736,210.32,0,158.416,0z M158.352,116.784 c-15.28,0-27.664-12.4-27.664-27.696s12.384-27.696,27.664-27.696s27.664,12.4,27.664,27.696S173.632,116.784,158.352,116.784z"/> </g>
</svg>