<svg width="24" height="24" viewBox="0 0 24 24" fill="none" xmlns="http://www.w3.org/2000/svg">
<rect width="23.7861" height="23.7861" rx="5.03706" fill="#E6F1FD"/>
<path d="M8.59089 4.47156H6.11936C5.68237 4.47156 5.26328 4.64515 4.95428 4.95415C4.64527 5.26315 4.47168 5.68225 4.47168 6.11924V8.59077M19.3008 8.59077V6.11924C19.3008 5.68225 19.1272 5.26315 18.8182 4.95415C18.5092 4.64515 18.0901 4.47156 17.6532 4.47156H15.1816M15.1816 19.3007H17.6532C18.0901 19.3007 18.5092 19.1271 18.8182 18.8181C19.1272 18.5091 19.3008 18.09 19.3008 17.653V15.1815M4.47168 15.1815V17.653C4.47168 18.09 4.64527 18.5091 4.95428 18.8181C5.26328 19.1271 5.68237 19.3007 6.11936 19.3007H8.59089" stroke="black" stroke-width="2.08129" stroke-linecap="round" stroke-linejoin="round"/>
</svg>
