<svg width="31" height="21" viewBox="0 0 31 21" fill="none" xmlns="http://www.w3.org/2000/svg">
<path d="M30.0252 17.853C30.0252 15.701 29.6438 13.5702 28.9026 11.5821C28.1615 9.59398 27.0751 7.78754 25.7057 6.26591C24.3362 4.74428 22.7104 3.53725 20.9211 2.71375C19.1318 1.89025 17.214 1.4664 15.2773 1.4664C13.3406 1.4664 11.4228 1.89025 9.63354 2.71375C7.84424 3.53725 6.21845 4.74428 4.84898 6.26591C3.47951 7.78754 2.39319 9.59398 1.65204 11.5821C0.910884 13.5702 0.529419 15.701 0.529419 17.853L15.2773 17.853H30.0252Z" fill="#D9D9D9"/>
<path fill-rule="evenodd" clip-rule="evenodd" d="M14.6979 4.98369C15.0179 4.66372 15.5367 4.66372 15.8566 4.98369L19.9533 9.08033C20.2733 9.4003 20.2733 9.91906 19.9533 10.239C19.6333 10.559 19.1145 10.559 18.7946 10.239L15.2773 6.72175L11.76 10.239C11.44 10.559 10.9213 10.559 10.6013 10.239C10.2813 9.91906 10.2813 9.4003 10.6013 9.08033L14.6979 4.98369Z" fill="black"/>
<path fill-rule="evenodd" clip-rule="evenodd" d="M14.6979 10.719C15.0179 10.399 15.5367 10.399 15.8566 10.719L19.9533 14.8156C20.2733 15.1356 20.2733 15.6544 19.9533 15.9743C19.6333 16.2943 19.1145 16.2943 18.7946 15.9743L15.2773 12.457L11.76 15.9743C11.44 16.2943 10.9213 16.2943 10.6013 15.9743C10.2813 15.6544 10.2813 15.1356 10.6013 14.8156L14.6979 10.719Z" fill="black"/>
</svg>
