<svg width="41" height="34" viewBox="0 0 41 34" fill="none" xmlns="http://www.w3.org/2000/svg">
<g clip-path="url(#clip0_236_2998)">
<path d="M1.42779 4.8383C1.50804 4.838 1.58829 4.8377 1.67096 4.83739C1.80302 4.83749 1.80302 4.83749 1.93774 4.83759C2.03136 4.83736 2.12498 4.83713 2.22143 4.83689C2.4814 4.83633 2.74136 4.83612 3.00132 4.83606C3.28166 4.83592 3.56199 4.83533 3.84233 4.8348C4.45534 4.83374 5.06835 4.83327 5.68136 4.83293C6.06411 4.83271 6.44686 4.83238 6.82961 4.83203C7.88929 4.83108 8.94897 4.83027 10.0086 4.83001C10.0765 4.82999 10.1443 4.82998 10.2142 4.82996C10.2821 4.82994 10.3501 4.82992 10.4202 4.82991C10.5579 4.82987 10.6957 4.82984 10.8334 4.8298C10.9017 4.82978 10.9701 4.82977 11.0405 4.82975C12.1478 4.82944 13.2552 4.82808 14.3625 4.82626C15.4994 4.82441 16.6362 4.82343 17.7731 4.82334C18.4114 4.82327 19.0497 4.82282 19.6881 4.82141C20.2316 4.8202 20.7751 4.8198 21.3186 4.82045C21.5959 4.82075 21.8731 4.82068 22.1504 4.81959C22.4511 4.81841 22.7517 4.81905 23.0524 4.81986C23.1837 4.81892 23.1837 4.81892 23.3176 4.81796C23.7791 4.8209 24.1381 4.83327 24.534 5.08279C24.8324 5.47694 24.8012 5.90162 24.798 6.37513C24.7984 6.4581 24.7988 6.54107 24.7991 6.62655C24.8001 6.90455 24.7993 7.18253 24.7986 7.46053C24.7989 7.65984 24.7993 7.85915 24.7998 8.05846C24.8008 8.54361 24.8007 9.02875 24.8 9.51391C24.7994 9.90823 24.7994 10.3026 24.7996 10.6969C24.7997 10.753 24.7997 10.8092 24.7997 10.867C24.7998 10.9811 24.7999 11.0951 24.8 11.2092C24.8006 12.2784 24.7999 13.3477 24.7986 14.417C24.7976 15.3342 24.7977 16.2515 24.7988 17.1688C24.8001 18.2343 24.8006 19.2997 24.7998 20.3652C24.7998 20.4788 24.7997 20.5925 24.7996 20.7061C24.7996 20.762 24.7996 20.8179 24.7995 20.8755C24.7993 21.2693 24.7997 21.6631 24.8002 22.0569C24.8009 22.5871 24.8004 23.1172 24.7991 23.6473C24.7988 23.842 24.7988 24.0367 24.7994 24.2314C24.8 24.4969 24.7992 24.7623 24.798 25.0278C24.7985 25.1051 24.7991 25.1824 24.7996 25.2621C24.7961 25.673 24.768 25.9666 24.534 26.3202C24.1066 26.6518 23.5808 26.5867 23.0653 26.5835C22.9646 26.5838 22.8639 26.584 22.7601 26.5843C22.4847 26.5851 22.2094 26.5843 21.934 26.5833C21.6454 26.5824 21.3569 26.5827 21.0683 26.5829C20.5839 26.583 20.0994 26.5821 19.615 26.5807C19.0552 26.579 18.4955 26.5787 17.9358 26.5792C17.3968 26.5797 16.8577 26.5792 16.3187 26.5783C16.0895 26.578 15.8604 26.5779 15.6312 26.5781C15.3112 26.5783 14.9913 26.5771 14.6713 26.5759C14.5288 26.5761 14.5288 26.5761 14.3835 26.5764C14.2963 26.5759 14.209 26.5753 14.1192 26.5748C14.0435 26.5746 13.9679 26.5744 13.89 26.5743C13.6595 26.5523 13.4959 26.5056 13.2907 26.3983C13.0695 26.0469 12.9621 25.728 12.8711 25.3247C12.6059 24.205 11.9669 23.3217 11.0045 22.692C9.7906 22.0083 8.41307 21.8605 7.07372 22.2308C5.91323 22.6247 5.0896 23.3032 4.5014 24.3752C4.31703 24.7505 4.20002 25.1232 4.10094 25.5284C4.08192 25.6045 4.0629 25.6806 4.0433 25.759C4.02729 25.8287 4.01129 25.8985 3.9948 25.9703C3.90648 26.2031 3.79935 26.318 3.60899 26.4763C3.20471 26.6111 2.77193 26.572 2.34869 26.5732C2.18058 26.5739 2.01254 26.5763 1.84444 26.5788C1.73673 26.5793 1.62901 26.5797 1.5213 26.58C1.37511 26.5811 1.37511 26.5811 1.22597 26.5822C0.926097 26.5515 0.740612 26.4792 0.485842 26.3202C0.32136 26.0734 0.310063 26.0155 0.30938 25.7338C0.308552 25.625 0.308552 25.625 0.307708 25.5139C0.307896 25.4341 0.308085 25.3542 0.308279 25.2719C0.30787 25.1872 0.307462 25.1025 0.30704 25.0152C0.305864 24.7298 0.305814 24.4444 0.305762 24.159C0.305167 23.955 0.304509 23.751 0.303793 23.547C0.302007 22.9917 0.30139 22.4365 0.300995 21.8812C0.300741 21.5346 0.300232 21.188 0.299668 20.8414C0.29814 19.882 0.296859 18.9225 0.296632 17.9631C0.296618 17.9017 0.296603 17.8403 0.296588 17.777C0.296559 17.6525 0.296531 17.5281 0.296503 17.4036C0.296489 17.3418 0.296474 17.28 0.29646 17.2163C0.296445 17.1544 0.296431 17.0925 0.296417 17.0288C0.29614 16.0258 0.29403 15.0229 0.291111 14.0199C0.28814 12.9905 0.286626 11.9611 0.286602 10.9318C0.286557 10.3537 0.285891 9.77556 0.283636 9.19746C0.281525 8.65388 0.281415 8.11033 0.282672 7.56674C0.282814 7.36697 0.282286 7.16719 0.281046 6.96742C0.27946 6.6952 0.280266 6.42309 0.281688 6.15087C0.280657 6.07135 0.279626 5.99184 0.278564 5.90992C0.282901 5.54761 0.288477 5.37294 0.508362 5.0746C0.815753 4.85977 1.05804 4.83882 1.42779 4.8383Z" fill="#649F18"/>
<path d="M27.4312 9.2598C27.5251 9.25916 27.5251 9.25916 27.621 9.25852C27.8274 9.25755 28.0338 9.25883 28.2402 9.26024C28.384 9.26022 28.5278 9.26011 28.6716 9.25989C28.9727 9.25978 29.2738 9.26076 29.575 9.26254C29.9607 9.26476 30.3463 9.26454 30.732 9.26355C31.0289 9.26301 31.3257 9.26362 31.6226 9.26459C31.7648 9.26494 31.907 9.26496 32.0492 9.26466C32.248 9.26443 32.4468 9.26572 32.6457 9.26742C32.7043 9.26707 32.7628 9.26672 32.8232 9.26636C33.1715 9.2713 33.3908 9.32153 33.6691 9.53321C33.828 9.70553 33.828 9.70553 33.9863 9.90896C34.264 10.2588 34.5481 10.6008 34.8403 10.9386C35.1776 11.33 35.5079 11.7261 35.8336 12.1272C36.0335 12.3709 36.2368 12.6114 36.4409 12.8515C36.7028 13.1597 36.9618 13.4696 37.2168 13.7836C37.4866 14.1152 37.7625 14.4407 38.0415 14.7645C38.3782 15.1552 38.7083 15.5504 39.033 15.9512C39.1667 16.114 39.3017 16.275 39.4387 16.4349C39.4773 16.4801 39.516 16.5253 39.5558 16.5719C39.6307 16.6593 39.7059 16.7465 39.7814 16.8334C40.2437 17.373 40.3406 17.6952 40.3386 18.3947C40.3392 18.4771 40.3399 18.5595 40.3406 18.6445C40.3424 18.9168 40.3425 19.1891 40.3424 19.4614C40.3429 19.6507 40.3435 19.84 40.3442 20.0293C40.3452 20.426 40.3453 20.8227 40.3449 21.2194C40.3444 21.728 40.3468 22.2365 40.35 22.7451C40.352 23.136 40.3522 23.5269 40.3519 23.9178C40.3521 24.1053 40.3528 24.2929 40.3542 24.4804C40.3559 24.7425 40.3552 25.0044 40.3538 25.2665C40.3548 25.3441 40.3559 25.4216 40.3569 25.5015C40.3525 25.8642 40.3472 26.0314 40.1222 26.3274C39.7854 26.5698 39.517 26.569 39.1102 26.5739C38.9585 26.5769 38.9585 26.5769 38.8037 26.58C38.4858 26.5522 38.3065 26.496 38.0415 26.3201C37.813 26.0292 37.7443 25.725 37.6609 25.3685C37.3843 24.2681 36.8303 23.3432 35.8553 22.7285C34.55 22.0334 33.2717 21.8633 31.8312 22.2576C30.6955 22.6238 29.8795 23.2844 29.3211 24.334C29.0797 24.817 28.9466 25.3026 28.8374 25.83C28.7339 26.1334 28.6049 26.2732 28.3597 26.4763C28.0808 26.5693 27.8487 26.5704 27.5546 26.5739C27.4028 26.5769 27.4028 26.5769 27.248 26.58C26.9257 26.5518 26.7496 26.5074 26.4859 26.3201C26.2653 25.906 26.2179 25.5758 26.2224 25.1117C26.2221 25.0471 26.2218 24.9825 26.2215 24.9159C26.2207 24.7006 26.2216 24.4853 26.2226 24.2699C26.2224 24.1151 26.2221 23.9602 26.2217 23.8054C26.221 23.3857 26.2217 22.9659 26.2227 22.5462C26.2236 22.1068 26.2233 21.6675 26.2231 21.2281C26.2231 20.4905 26.2239 19.7529 26.2254 19.0153C26.227 18.1624 26.2273 17.3094 26.2268 16.4565C26.2264 15.6359 26.2268 14.8154 26.2277 13.9948C26.2281 13.6456 26.2281 13.2964 26.228 12.9471C26.2278 12.5361 26.2284 12.125 26.2297 11.714C26.23 11.5631 26.2301 11.4121 26.2299 11.2612C26.2296 11.0554 26.2303 10.8495 26.2313 10.6437C26.231 10.5839 26.2307 10.524 26.2304 10.4623C26.2339 10.0362 26.2802 9.74866 26.5732 9.43318C26.8616 9.26114 27.105 9.25559 27.4312 9.2598ZM28.1255 11.1729C27.9629 11.4242 27.9496 11.6284 27.9491 11.9242C27.9487 12.0123 27.9482 12.1004 27.9477 12.1911C27.948 12.2858 27.9483 12.3806 27.9486 12.4782C27.9485 12.5758 27.9483 12.6734 27.9482 12.774C27.9481 12.9803 27.9483 13.1867 27.949 13.393C27.9499 13.6571 27.9494 13.9212 27.9484 14.1854C27.9477 14.4378 27.9482 14.6902 27.9486 14.9426C27.9483 15.0373 27.948 15.1321 27.9477 15.2297C27.9481 15.3178 27.9486 15.4059 27.9491 15.4966C27.9493 15.574 27.9494 15.6515 27.9495 15.7312C27.9711 15.9533 27.9928 16.0686 28.1255 16.248C28.5104 16.5069 28.8463 16.5158 29.2932 16.5125C29.3619 16.5129 29.4307 16.5133 29.5015 16.5138C29.7278 16.5148 29.954 16.5141 30.1803 16.5133C30.338 16.5135 30.4956 16.5137 30.6533 16.514C30.9834 16.5143 31.3135 16.5138 31.6435 16.5127C32.0664 16.5114 32.4893 16.5122 32.9122 16.5136C33.2376 16.5144 33.5631 16.5142 33.8885 16.5135C34.0445 16.5134 34.2004 16.5136 34.3563 16.5141C34.5742 16.5147 34.7921 16.5138 35.01 16.5125C35.0743 16.513 35.1386 16.5135 35.2049 16.5139C35.6452 16.5091 35.911 16.4265 36.231 16.1064C36.3655 15.8588 36.3767 15.7477 36.3238 15.4672C36.1671 15.2117 35.9726 14.991 35.7772 14.7645C35.7095 14.6843 35.6419 14.6041 35.5744 14.5238C35.428 14.35 35.281 14.1768 35.1337 14.0038C34.8837 13.7096 34.6404 13.4102 34.3968 13.1108C34.1566 12.8188 33.9115 12.5311 33.6657 12.2439C33.4105 11.9442 33.172 11.6358 32.9453 11.3138C32.6596 11.0158 32.355 10.9246 31.952 10.9083C31.7989 10.9068 31.6458 10.9066 31.4927 10.9075C31.3705 10.9072 31.3705 10.9072 31.2459 10.9068C31.0743 10.9067 30.9026 10.9071 30.7309 10.9081C30.4688 10.9093 30.2067 10.9081 29.9445 10.9066C29.7774 10.9068 29.6102 10.9071 29.4431 10.9075C29.365 10.907 29.2869 10.9066 29.2065 10.9061C28.7921 10.9102 28.476 10.9256 28.1255 11.1729Z" fill="#649F18"/>
<path d="M34.8403 23.7435C34.9251 23.7913 34.9251 23.7913 35.0117 23.8402C35.1672 23.9328 35.3162 24.0309 35.4649 24.1339C35.5326 24.179 35.6002 24.2241 35.6699 24.2705C36.29 24.858 36.7157 25.7305 36.741 26.5824C36.7538 27.6144 36.5545 28.3984 35.8632 29.1971C35.1104 29.9682 34.2694 30.2468 33.2006 30.3021C32.271 30.2682 31.4471 29.8611 30.7778 29.2245C30.1449 28.5176 29.8433 27.6528 29.8433 26.7105C29.9354 25.6807 30.3334 24.813 31.1203 24.1305C32.1586 23.3563 33.671 23.0618 34.8403 23.7435ZM32.576 26.1639C32.3786 26.4272 32.323 26.6273 32.3418 26.9496C32.4102 27.3426 32.6442 27.5215 32.9518 27.7548C33.2264 27.8332 33.4784 27.8083 33.7472 27.7255C34.0294 27.5046 34.2082 27.2954 34.2937 26.9447C34.2847 26.5211 34.1204 26.3029 33.8253 26.0078C33.3452 25.7563 33.0054 25.8764 32.576 26.1639Z" fill="#649F18"/>
<path d="M10.4554 23.9533C11.1929 24.4797 11.7084 25.199 11.9096 26.0859C12.0652 27.0466 11.9395 27.9626 11.4003 28.7887C10.9502 29.3882 10.4707 29.7839 9.77708 30.0679C9.70301 30.1001 9.62893 30.1323 9.55261 30.1655C8.46242 30.4271 7.50927 30.2504 6.55634 29.6824C5.80616 29.1197 5.34264 28.3999 5.11189 27.4962C5.01387 26.2954 5.23993 25.3939 6.00003 24.4438C7.15121 23.1819 9.05846 23.1033 10.4554 23.9533ZM7.67384 26.2957C7.53947 26.5882 7.53194 26.8641 7.59088 27.179C7.72256 27.4261 7.904 27.5926 8.13255 27.7548C8.47646 27.859 8.69215 27.8406 9.01094 27.6718C9.32573 27.413 9.44717 27.2392 9.49893 26.8325C9.45765 26.4963 9.37315 26.3414 9.15246 26.0859C8.57378 25.7242 8.15934 25.8729 7.67384 26.2957Z" fill="#649F18"/>
</g>
<defs>
<clipPath id="clip0_236_2998">
<rect width="39.9762" height="32.801" fill="white" transform="translate(0.32959 0.662262)"/>
</clipPath>
</defs>
</svg>
