<svg width="42" height="42" viewBox="0 0 42 42" fill="none" xmlns="http://www.w3.org/2000/svg">
<rect width="42" height="42" rx="8.89412" fill="#E6F1FD"/>
<path d="M22.2479 8.52908C22.4061 8.60098 22.5083 8.65715 22.607 8.80124C22.6781 8.99284 22.6745 9.17614 22.6732 9.37771C22.6734 9.42224 22.6736 9.46677 22.6738 9.51264C22.6743 9.66271 22.6739 9.81277 22.6736 9.96284C22.6737 10.0712 22.674 10.1795 22.6743 10.2878C22.6749 10.5862 22.6747 10.8846 22.6745 11.1829C22.6743 11.5045 22.6749 11.826 22.6753 12.1475C22.676 12.7776 22.6761 13.4078 22.676 14.0379C22.6759 14.5499 22.676 15.0619 22.6763 15.5739C22.6763 15.6831 22.6763 15.6831 22.6764 15.7945C22.6764 15.9423 22.6765 16.0902 22.6766 16.238C22.677 17.2311 22.6773 18.2242 22.677 19.2173C22.677 19.2561 22.677 19.295 22.677 19.335C22.677 19.5319 22.6769 19.7288 22.6769 19.9257C22.6768 19.9648 22.6768 20.0039 22.6768 20.0442C22.6768 20.1233 22.6768 20.2024 22.6768 20.2815C22.6764 21.5123 22.6769 22.743 22.678 23.9738C22.6792 25.356 22.6798 26.7383 22.6796 28.1205C22.6795 28.8526 22.6796 29.5847 22.6805 30.3167C22.6812 30.9399 22.6812 31.5631 22.6805 32.1863C22.6802 32.5044 22.6801 32.8226 22.6808 33.1407C22.6815 33.4317 22.6813 33.7227 22.6805 34.0137C22.6803 34.1192 22.6805 34.2247 22.6809 34.3302C22.6815 34.4732 22.681 34.6162 22.6803 34.7592C22.6807 34.8005 22.6811 34.8418 22.6816 34.8843C22.6787 35.1377 22.6354 35.2952 22.4824 35.4979C22.2939 35.6344 22.1242 35.6471 21.8961 35.6152C21.5603 35.3967 21.5603 35.3967 21.5003 35.116C21.4984 35.035 21.4985 34.954 21.5001 34.8729C21.4996 34.8279 21.4991 34.7829 21.4985 34.7366C21.4973 34.5853 21.4985 34.4341 21.4997 34.2827C21.4993 34.1734 21.4987 34.064 21.498 33.9547C21.4966 33.6537 21.4973 33.3529 21.4984 33.0519C21.4992 32.7276 21.4979 32.4032 21.497 32.0789C21.4954 31.4433 21.4957 30.8077 21.4968 30.1721C21.4976 29.6557 21.4977 29.1393 21.4973 28.6229C21.4972 28.5494 21.4972 28.476 21.4971 28.4004C21.497 28.2512 21.4969 28.1021 21.4968 27.9529C21.4958 26.5934 21.4968 25.2339 21.4987 23.8744C21.5003 22.633 21.5002 21.3916 21.4985 20.1502C21.4966 18.7559 21.4959 17.3615 21.497 15.9672C21.4971 15.8186 21.4972 15.67 21.4973 15.5214C21.4973 15.4483 21.4974 15.3752 21.4974 15.2998C21.4978 14.7838 21.4972 14.2679 21.4964 13.7519C21.4954 13.1234 21.4957 12.4948 21.4976 11.8663C21.4985 11.5454 21.4988 11.2245 21.4977 10.9037C21.4966 10.6101 21.4972 10.3167 21.4991 10.0232C21.4995 9.91677 21.4993 9.81036 21.4984 9.70396C21.4974 9.55969 21.4985 9.41559 21.5001 9.27133C21.4993 9.22967 21.4984 9.18801 21.4976 9.14508C21.5013 8.9833 21.5151 8.85802 21.6193 8.73046C21.8298 8.54597 21.9707 8.4819 22.2479 8.52908Z" fill="black"/>
<path d="M29.6681 13.1418C29.7345 13.1392 29.7345 13.1392 29.8022 13.1366C30.0152 13.1342 30.1358 13.1393 30.3073 13.2712C30.4526 13.4704 30.4632 13.5819 30.4626 13.8266C30.4626 13.9251 30.4626 13.9251 30.4626 14.0257C30.4623 14.0969 30.462 14.1681 30.4617 14.2415C30.4616 14.3142 30.4615 14.3869 30.4614 14.4618C30.4611 14.6552 30.4606 14.8485 30.46 15.0419C30.4594 15.2391 30.4591 15.4364 30.4588 15.6337C30.4582 16.0208 30.4572 16.4079 30.4559 16.795C30.4963 16.7945 30.5366 16.794 30.5782 16.7934C30.9986 16.7883 31.4189 16.7847 31.8393 16.7821C31.9962 16.7811 32.153 16.7794 32.3099 16.7773C32.5354 16.7745 32.761 16.7732 32.9866 16.7721C33.0566 16.7709 33.1266 16.7697 33.1987 16.7685C33.8179 16.7683 33.8179 16.7683 34.0909 17.0295C34.3189 17.7135 34.0483 18.578 33.765 19.2082C33.2015 20.3182 32.3336 21.0671 31.1618 21.4891C30.0145 21.8145 28.8481 21.6572 27.7884 21.1298C26.7882 20.5693 26.1402 19.671 25.7598 18.6079C25.439 17.4628 25.6324 16.2599 26.1814 15.2249C26.7834 14.2105 27.7374 13.5183 28.873 13.2187C29.1377 13.1523 29.3967 13.1453 29.6681 13.1418ZM27.8177 15.0362C27.781 15.0682 27.7442 15.1001 27.7064 15.1331C27.1548 15.6449 26.7992 16.4032 26.7505 17.1543C26.7377 18.0875 26.9872 18.9233 27.6418 19.6092C28.4179 20.3055 29.2454 20.5404 30.264 20.4991C31.0416 20.4378 31.7502 19.9923 32.2734 19.4333C32.5608 19.0775 32.7353 18.7715 32.8664 18.3354C32.8872 18.2666 32.908 18.1978 32.9294 18.1269C32.9451 18.0743 32.9608 18.0217 32.9769 17.9676C32.9363 17.9671 32.8957 17.9666 32.8539 17.9661C32.4316 17.9611 32.0094 17.9553 31.5871 17.949C31.4295 17.9467 31.2718 17.9446 31.1142 17.9428C30.8877 17.9402 30.6613 17.9368 30.4349 17.9332C30.329 17.9322 30.329 17.9322 30.2209 17.9312C30.1552 17.93 30.0895 17.9288 30.0218 17.9276C29.9351 17.9265 29.9351 17.9265 29.8466 17.9253C29.6855 17.9081 29.5922 17.8838 29.4593 17.7917C29.3339 17.6102 29.3263 17.4517 29.3233 17.2346C29.3222 17.17 29.321 17.1055 29.3198 17.039C29.3191 16.9697 29.3184 16.9003 29.3177 16.8289C29.3166 16.7577 29.3155 16.6864 29.3143 16.613C29.3108 16.3855 29.3081 16.1579 29.3054 15.9303C29.3031 15.776 29.3008 15.6217 29.2985 15.4674C29.2929 15.0892 29.2879 14.7109 29.2834 14.3327C28.7184 14.3327 28.2262 14.6711 27.8177 15.0362Z" fill="black"/>
<path d="M9.36135 31.9714C9.43763 31.9711 9.51391 31.9708 9.59251 31.9704C9.67723 31.9703 9.76196 31.9703 9.84669 31.9702C9.93577 31.97 10.0248 31.9697 10.1139 31.9693C10.3561 31.9686 10.5982 31.9682 10.8404 31.9679C10.9916 31.9678 11.1429 31.9675 11.2941 31.9673C11.7673 31.9665 12.2404 31.9659 12.7136 31.9657C13.2599 31.9654 13.8063 31.9644 14.3526 31.9627C14.7748 31.9614 15.1971 31.9608 15.6193 31.9607C15.8715 31.9607 16.1237 31.9603 16.376 31.9593C16.6132 31.9583 16.8504 31.9582 17.0877 31.9587C17.1747 31.9587 17.2618 31.9585 17.3488 31.9579C17.4677 31.9572 17.5866 31.9576 17.7055 31.9581C17.772 31.958 17.8385 31.958 17.907 31.9579C18.1572 31.9886 18.3109 32.085 18.4825 32.2663C18.5665 32.4127 18.5758 32.5023 18.5763 32.6704C18.5768 32.7257 18.5774 32.7811 18.578 32.8382C18.5774 32.9273 18.5774 32.9273 18.5769 33.0183C18.5771 33.1104 18.5771 33.1104 18.5774 33.2044C18.5775 33.3343 18.5772 33.4641 18.5765 33.594C18.5755 33.7925 18.5765 33.991 18.5776 34.1896C18.5775 34.3158 18.5772 34.442 18.5769 34.5682C18.5772 34.6275 18.5776 34.6868 18.578 34.7479C18.5727 35.2772 18.5727 35.2772 18.3777 35.4973C18.1756 35.6282 18.005 35.6295 17.7675 35.6299C17.6901 35.6303 17.6128 35.6307 17.5331 35.6311C17.4475 35.631 17.3618 35.6309 17.2762 35.6307C17.186 35.631 17.0957 35.6313 17.0055 35.6316C16.7604 35.6324 16.5154 35.6324 16.2703 35.6323C16.0658 35.6322 15.8612 35.6325 15.6567 35.6328C15.1741 35.6334 14.6915 35.6335 14.2089 35.6331C13.711 35.6328 13.2132 35.6335 12.7153 35.6347C12.2878 35.6358 11.8604 35.6361 11.4329 35.6359C11.1776 35.6358 10.9223 35.636 10.667 35.6368C10.427 35.6375 10.1869 35.6374 9.9468 35.6366C9.85872 35.6365 9.77064 35.6367 9.68255 35.6371C9.56224 35.6378 9.44198 35.6373 9.32167 35.6365C9.25437 35.6365 9.18707 35.6366 9.11772 35.6366C8.91718 35.612 8.80725 35.5575 8.64542 35.4387C8.52904 35.2687 8.51282 35.1283 8.5102 34.9248C8.50926 34.8696 8.50832 34.8145 8.50736 34.7576C8.50704 34.6984 8.50673 34.6391 8.50641 34.5781C8.50588 34.5168 8.50535 34.4555 8.5048 34.3923C8.50395 34.2627 8.50343 34.1331 8.50321 34.0035C8.50252 33.8056 8.49963 33.6078 8.49667 33.4099C8.49612 33.2838 8.49569 33.1578 8.49541 33.0318C8.49427 32.9728 8.49312 32.9138 8.49194 32.853C8.49365 32.5868 8.49647 32.3917 8.66579 32.1777C8.89611 31.9712 9.06235 31.9722 9.36135 31.9714ZM9.70072 33.1522C9.70072 33.5972 9.70072 34.0422 9.70072 34.5007C12.2352 34.5007 14.7697 34.5007 17.381 34.5007C17.381 34.0557 17.381 33.6107 17.381 33.1522C14.8465 33.1522 12.312 33.1522 9.70072 33.1522Z" fill="black"/>
<path d="M26.4221 31.9714C26.4983 31.9711 26.5745 31.9708 26.653 31.9704C26.7376 31.9703 26.8223 31.9703 26.9069 31.9702C26.9959 31.97 27.0849 31.9697 27.1739 31.9693C27.4158 31.9686 27.6577 31.9682 27.8996 31.9679C28.0507 31.9678 28.2019 31.9675 28.353 31.9673C28.8259 31.9665 29.2987 31.9659 29.7716 31.9657C30.3175 31.9654 30.8633 31.9644 31.4092 31.9627C31.8311 31.9614 32.253 31.9608 32.6749 31.9607C32.9269 31.9607 33.1789 31.9603 33.4309 31.9593C33.668 31.9583 33.9051 31.9582 34.1422 31.9587C34.2291 31.9587 34.316 31.9585 34.403 31.9579C34.5218 31.9572 34.6407 31.9576 34.7596 31.9581C34.8593 31.958 34.8592 31.958 34.961 31.9579C35.1733 31.9829 35.3146 32.0465 35.4974 32.1556C35.6183 32.3236 35.6297 32.4665 35.6308 32.6704C35.6314 32.7257 35.6319 32.7811 35.6325 32.8382C35.6324 32.9273 35.6324 32.9273 35.6323 33.0183C35.6326 33.0797 35.6328 33.1411 35.6331 33.2044C35.6334 33.3343 35.6335 33.4641 35.6332 33.594C35.633 33.7925 35.6344 33.991 35.6359 34.1896C35.636 34.3158 35.636 34.442 35.636 34.5682C35.6365 34.6275 35.6371 34.6868 35.6376 34.7479C35.6341 35.2772 35.6341 35.2772 35.4388 35.4973C35.2368 35.6281 35.0661 35.6296 34.8286 35.6303C34.7513 35.6308 34.6739 35.6313 34.5942 35.6318C34.5086 35.6318 34.423 35.6317 34.3374 35.6316C34.2471 35.632 34.1569 35.6324 34.0666 35.6328C33.8216 35.6339 33.5765 35.6341 33.3315 35.6342C33.1269 35.6343 32.9224 35.6348 32.7178 35.6352C32.2352 35.6361 31.7527 35.6364 31.2701 35.6363C30.7722 35.6363 30.2743 35.6375 29.7765 35.6393C29.349 35.6409 28.9216 35.6415 28.4941 35.6414C28.2388 35.6414 27.9835 35.6417 27.7282 35.643C27.4881 35.6441 27.248 35.6441 27.008 35.6433C26.9199 35.6431 26.8318 35.6434 26.7437 35.6441C26.6234 35.645 26.5032 35.6445 26.3828 35.6436C26.3155 35.6437 26.2482 35.6437 26.1789 35.6438C25.9607 35.6083 25.8635 35.5326 25.7066 35.3801C25.6354 35.2377 25.6394 35.1442 25.6376 34.9851C25.6364 34.8985 25.6364 34.8985 25.6353 34.8101C25.6349 34.7475 25.6344 34.6849 25.634 34.6204C25.6335 34.5562 25.633 34.492 25.6325 34.4259C25.6317 34.2898 25.6311 34.1537 25.6306 34.0177C25.6296 33.8096 25.6271 33.6016 25.6245 33.3935C25.6239 33.2614 25.6234 33.1293 25.623 32.9972C25.622 32.9349 25.6209 32.8727 25.6199 32.8086C25.6211 32.3773 25.6211 32.3773 25.7558 32.1469C25.9688 31.9643 26.1516 31.9721 26.4221 31.9714ZM26.7619 33.1522C26.7619 33.5972 26.7619 34.0422 26.7619 34.5007C29.3157 34.5007 31.8695 34.5007 34.5008 34.5007C34.5008 34.0557 34.5008 33.6107 34.5008 33.1522C31.9469 33.1522 29.3931 33.1522 26.7619 33.1522Z" fill="black"/>
<path d="M13.1052 12.7275C13.1748 12.7246 13.2444 12.7217 13.3161 12.7188C13.5105 12.7492 13.611 12.784 13.7456 12.9283C13.8738 13.1748 13.8331 13.4672 13.8236 13.738C13.8196 13.859 13.818 13.9798 13.8169 14.1009C13.8138 14.4449 13.808 14.7887 13.7972 15.1326C13.7375 16.4043 13.7375 16.4043 14.3239 17.4933C14.3897 17.5602 14.4565 17.6261 14.5243 17.6908C14.703 17.8679 14.8547 18.0672 15.0106 18.2641C15.0731 18.3413 15.1357 18.4184 15.1984 18.4954C15.2293 18.5337 15.2603 18.572 15.2922 18.6114C15.3578 18.6922 15.4236 18.7728 15.4898 18.8531C15.5903 18.9758 15.689 19.0998 15.7874 19.2242C15.818 19.2609 15.8486 19.2976 15.8802 19.3354C16.0709 19.5808 16.1336 19.7673 16.1133 20.0799C16.0714 20.302 15.9502 20.376 15.7778 20.5064C14.7273 21.1773 13.5495 21.4415 12.3168 21.187C11.17 20.9108 10.2667 20.2292 9.63149 19.2425C8.99492 18.1632 8.86212 17.0361 9.15147 15.8201C9.4801 14.6888 10.2386 13.7748 11.2605 13.1999C11.8366 12.8932 12.4555 12.7458 13.1052 12.7275ZM11.0386 14.7758C10.4128 15.4401 10.137 16.2525 10.1415 17.1518C10.1728 18.0436 10.5703 18.7422 11.2034 19.3597C11.8526 19.9169 12.5869 20.1655 13.4329 20.1517C13.8946 20.1161 14.3267 19.9835 14.7431 19.7848C14.5289 19.4954 14.3098 19.2103 14.0872 18.9274C14.0597 18.8924 14.0323 18.8575 14.004 18.8215C13.8611 18.6399 13.7177 18.4588 13.5738 18.2781C13.5456 18.2426 13.5174 18.2071 13.4884 18.1705C13.4354 18.1038 13.3823 18.0372 13.329 17.9707C13.2801 17.909 13.2319 17.8467 13.1846 17.7837C13.1285 17.7097 13.0707 17.637 13.0113 17.5656C12.719 17.1835 12.6989 16.8606 12.7026 16.3896C12.7018 16.3188 12.701 16.248 12.7001 16.175C12.698 15.9504 12.6982 15.7259 12.6985 15.5013C12.6974 15.3483 12.6962 15.1954 12.6948 15.0425C12.6918 14.669 12.6907 14.2955 12.6911 13.922C12.0992 13.922 11.455 14.3967 11.0386 14.7758Z" fill="black"/>
<path d="M15.8382 12.4951C16.8699 12.7628 17.5781 13.3435 18.1149 14.2478C18.5577 15.0829 18.6679 16.054 18.4366 16.9712C18.2871 17.4259 18.075 17.8181 17.7917 18.2024C17.7567 18.2532 17.7216 18.304 17.6855 18.3563C17.4449 18.6175 17.1803 18.8527 16.8427 18.9719C16.6004 18.9611 16.4145 18.8808 16.244 18.7032C16.1588 18.5961 16.0789 18.4865 15.9999 18.3746C15.9701 18.3336 15.9403 18.2927 15.9096 18.2505C15.8462 18.163 15.783 18.0752 15.7202 17.9873C15.6215 17.8492 15.5218 17.7119 15.4219 17.5747C15.2335 17.3157 15.0467 17.0557 14.8603 16.7953C14.8365 16.7621 14.8126 16.7289 14.788 16.6948C14.7288 16.6124 14.67 16.5298 14.6112 16.4472C14.5806 16.4044 14.5501 16.3615 14.5186 16.3174C14.3952 16.1227 14.3835 15.9581 14.3819 15.7335C14.3813 15.6725 14.3807 15.6114 14.3802 15.5485C14.3799 15.4825 14.3797 15.4166 14.3794 15.3486C14.3791 15.2807 14.3787 15.2129 14.3784 15.1429C14.3778 14.9992 14.3774 14.8554 14.3772 14.7116C14.3767 14.492 14.3748 14.2724 14.373 14.0528C14.3726 13.9131 14.3723 13.7734 14.3721 13.6338C14.3713 13.5682 14.3706 13.5026 14.3699 13.435C14.3708 13.1071 14.3716 12.8522 14.5672 12.5741C14.9169 12.3409 15.4358 12.4238 15.8382 12.4951ZM15.5639 13.6294C15.407 15.0106 15.407 15.0106 15.8128 16.2751C15.9448 16.4255 16.0814 16.5668 16.229 16.7019C16.3793 16.8466 16.4894 17.0087 16.6082 17.1801C16.6448 17.2309 16.6815 17.2818 16.7192 17.3342C16.7443 17.3692 16.7693 17.4042 16.795 17.4402C17.1181 17.1621 17.3017 16.8048 17.3813 16.3849C17.4385 15.5964 17.3036 14.9559 16.795 14.333C16.4805 13.9901 16.1164 13.7884 15.6811 13.6294C15.6424 13.6294 15.6037 13.6294 15.5639 13.6294Z" fill="black"/>
<path d="M33.2257 12.4056C33.6065 12.608 33.9082 12.8521 34.2077 13.1604C34.2406 13.1921 34.2735 13.2238 34.3073 13.2564C34.8594 13.8317 35.1409 14.6918 35.1714 15.4726C35.1658 15.6991 35.1533 15.7859 35.0358 15.9856C34.8397 16.1528 34.7271 16.1584 34.4732 16.1608C34.4061 16.1616 34.3389 16.1623 34.2698 16.1631C34.1605 16.1638 34.1605 16.1638 34.049 16.1644C33.9744 16.1649 33.8998 16.1654 33.8229 16.1659C33.6647 16.1667 33.5066 16.1673 33.3484 16.1678C33.1462 16.1684 32.9439 16.1704 32.7417 16.1728C32.5484 16.1747 32.3552 16.1749 32.1619 16.1754C32.0894 16.1764 32.0169 16.1775 31.9422 16.1785C31.8407 16.1783 31.8407 16.1783 31.7371 16.178C31.6777 16.1784 31.6183 16.1787 31.5571 16.1791C31.3481 16.1425 31.2504 16.0634 31.1004 15.9159C31.0405 15.7362 31.0337 15.6116 31.0324 15.4234C31.0318 15.3586 31.0312 15.2938 31.0307 15.2271C31.0304 15.1571 31.0302 15.0871 31.0299 15.015C31.0296 14.9431 31.0292 14.8711 31.0289 14.797C31.0283 14.6447 31.028 14.4925 31.0277 14.3402C31.0272 14.1072 31.0253 13.8742 31.0235 13.6411C31.0231 13.4933 31.0228 13.3454 31.0226 13.1975C31.0218 13.1278 31.0211 13.058 31.0204 12.9862C31.0206 12.921 31.0207 12.8559 31.0209 12.7888C31.0207 12.7316 31.0205 12.6745 31.0203 12.6156C31.0458 12.4273 31.1075 12.3173 31.2177 12.1638C31.7636 11.8009 32.6993 12.1587 33.2257 12.4056ZM32.1557 13.2777C32.1557 13.8581 32.1557 14.4385 32.1557 15.0365C32.7362 15.0365 33.3166 15.0365 33.9146 15.0365C33.818 14.4572 33.4999 13.9901 33.0352 13.6295C32.6209 13.372 32.6209 13.372 32.1557 13.2777Z" fill="black"/>
<path d="M26.3611 26.1673C26.4382 26.1669 26.5154 26.1666 26.5949 26.1663C26.681 26.1662 26.767 26.1661 26.8531 26.1661C26.9433 26.1658 27.0335 26.1655 27.1238 26.1652C27.3693 26.1644 27.6148 26.164 27.8604 26.1638C28.0137 26.1636 28.1671 26.1634 28.3204 26.1631C28.8 26.1623 29.2796 26.1617 29.7592 26.1615C30.3132 26.1612 30.8671 26.1602 31.4211 26.1585C31.849 26.1572 32.277 26.1566 32.7049 26.1566C32.9606 26.1565 33.2163 26.1562 33.472 26.1551C33.7126 26.1541 33.9531 26.154 34.1937 26.1545C34.2819 26.1546 34.3702 26.1543 34.4585 26.1537C34.5791 26.153 34.6996 26.1533 34.8202 26.154C34.9213 26.1538 34.9213 26.1538 35.0246 26.1537C35.2624 26.1826 35.4257 26.2637 35.5778 26.4503C35.6339 26.658 35.6383 26.8572 35.5558 27.0549C35.3907 27.2567 35.287 27.3354 35.0265 27.3751C34.7938 27.3855 34.562 27.3864 34.3292 27.3841C34.2395 27.3843 34.1498 27.3847 34.0602 27.3851C33.8172 27.3859 33.5742 27.3849 33.3312 27.3836C33.0767 27.3824 32.8223 27.3827 32.5678 27.3829C32.1405 27.3829 31.7133 27.3817 31.2861 27.3798C30.7922 27.3777 30.2984 27.3772 29.8046 27.3776C29.3293 27.3779 28.854 27.3773 28.3787 27.3762C28.1765 27.3757 27.9743 27.3755 27.7721 27.3756C27.5341 27.3757 27.296 27.3748 27.058 27.3733C26.9706 27.3729 26.8833 27.3728 26.796 27.373C26.6767 27.3732 26.5575 27.3722 26.4382 27.3712C26.3381 27.3709 26.3381 27.3709 26.236 27.3705C26.035 27.3451 25.9264 27.2931 25.765 27.1722C25.6209 26.9561 25.6066 26.7782 25.6477 26.5273C25.8551 26.2024 25.9889 26.1682 26.3611 26.1673Z" fill="black"/>
<path d="M9.25321 25.8078C9.29122 25.8075 9.32923 25.8072 9.36839 25.807C9.49599 25.8062 9.62357 25.8063 9.75117 25.8064C9.84256 25.8061 9.93395 25.8057 10.0253 25.8052C10.2738 25.8042 10.5222 25.8039 10.7707 25.8038C10.978 25.8037 11.1853 25.8033 11.3926 25.8029C11.8818 25.8019 12.3709 25.8016 12.86 25.8017C13.3647 25.8018 13.8694 25.8006 14.3741 25.7987C14.8073 25.7972 15.2405 25.7965 15.6737 25.7966C15.9324 25.7967 16.1912 25.7963 16.45 25.7951C16.6934 25.7939 16.9368 25.7939 17.1802 25.7948C17.2695 25.7949 17.3588 25.7946 17.4481 25.7939C17.5701 25.793 17.692 25.7936 17.814 25.7945C17.8823 25.7944 17.9505 25.7943 18.0208 25.7943C18.2402 25.8296 18.3378 25.904 18.4951 26.058C18.5594 26.2135 18.5657 26.3597 18.5537 26.527C18.4614 26.7393 18.3961 26.808 18.202 26.9374C18.0356 26.9525 18.0356 26.9525 17.8289 26.9531C17.7909 26.9533 17.7529 26.9536 17.7137 26.9539C17.5861 26.9546 17.4585 26.9545 17.3309 26.9544C17.2396 26.9548 17.1482 26.9552 17.0568 26.9556C16.8083 26.9566 16.5599 26.9569 16.3114 26.957C16.1041 26.9571 15.8968 26.9575 15.6895 26.958C15.2003 26.9589 14.7112 26.9592 14.2221 26.9591C13.7174 26.959 13.2127 26.9603 12.708 26.9621C12.2748 26.9637 11.8416 26.9643 11.4084 26.9642C11.1497 26.9642 10.8909 26.9645 10.6321 26.9658C10.3887 26.9669 10.1453 26.9669 9.90194 26.9661C9.81262 26.9659 9.72331 26.9662 9.634 26.9669C9.512 26.9678 9.3901 26.9673 9.2681 26.9664C9.19986 26.9664 9.13161 26.9665 9.0613 26.9666C8.84187 26.9312 8.74431 26.8568 8.587 26.7029C8.5227 26.5474 8.5164 26.4011 8.52837 26.2339C8.68483 25.874 8.87741 25.8089 9.25321 25.8078Z" fill="black"/>
<path d="M9.25321 23.3459C9.29122 23.3456 9.32923 23.3453 9.36839 23.3451C9.49599 23.3443 9.62357 23.3444 9.75117 23.3445C9.84256 23.3442 9.93395 23.3438 10.0253 23.3433C10.2738 23.3423 10.5222 23.342 10.7707 23.3419C10.978 23.3418 11.1853 23.3414 11.3926 23.341C11.8818 23.34 12.3709 23.3397 12.86 23.3398C13.3647 23.3399 13.8694 23.3386 14.3741 23.3368C14.8073 23.3353 15.2405 23.3346 15.6737 23.3347C15.9324 23.3347 16.1912 23.3344 16.45 23.3332C16.6934 23.332 16.9368 23.332 17.1802 23.3329C17.2695 23.333 17.3588 23.3327 17.4481 23.332C17.5701 23.3311 17.692 23.3316 17.814 23.3326C17.8823 23.3325 17.9505 23.3324 18.0208 23.3324C18.2402 23.3677 18.3378 23.4421 18.4951 23.5961C18.5594 23.7515 18.5657 23.8978 18.5537 24.0651C18.4614 24.2774 18.3961 24.3461 18.202 24.4755C18.0356 24.4906 18.0356 24.4906 17.8289 24.4911C17.7909 24.4914 17.7529 24.4917 17.7137 24.492C17.5861 24.4927 17.4585 24.4926 17.3309 24.4925C17.2396 24.4929 17.1482 24.4933 17.0568 24.4937C16.8083 24.4947 16.5599 24.495 16.3114 24.4951C16.1041 24.4952 15.8968 24.4956 15.6895 24.496C15.2003 24.497 14.7112 24.4973 14.2221 24.4972C13.7174 24.4971 13.2127 24.4984 12.708 24.5002C12.2748 24.5018 11.8416 24.5024 11.4084 24.5023C11.1497 24.5023 10.8909 24.5026 10.6321 24.5038C10.3887 24.505 10.1453 24.505 9.90194 24.5041C9.81262 24.504 9.72331 24.5043 9.634 24.505C9.512 24.5059 9.3901 24.5054 9.2681 24.5045C9.19986 24.5045 9.13161 24.5046 9.0613 24.5047C8.84187 24.4693 8.74431 24.3949 8.587 24.241C8.5227 24.0855 8.5164 23.9392 8.52837 23.7719C8.68483 23.4121 8.87741 23.3469 9.25321 23.3459Z" fill="black"/>
<path d="M26.4245 23.7048C26.5013 23.7045 26.5781 23.7042 26.6572 23.7038C26.7424 23.7037 26.8277 23.7037 26.913 23.7036C27.0027 23.7033 27.0923 23.7031 27.182 23.7027C27.4257 23.702 27.6694 23.7016 27.9131 23.7013C28.0654 23.7012 28.2176 23.7009 28.3698 23.7007C28.8461 23.6999 29.3223 23.6993 29.7985 23.6991C30.3484 23.6988 30.8983 23.6978 31.4482 23.6961C31.8732 23.6948 32.2981 23.6942 32.7231 23.6941C32.9769 23.6941 33.2308 23.6937 33.4847 23.6927C33.7234 23.6917 33.9622 23.6916 34.201 23.6921C34.2886 23.6921 34.3762 23.6919 34.4638 23.6913C34.5835 23.6906 34.7031 23.691 34.8228 23.6915C34.9232 23.6914 34.9232 23.6914 35.0257 23.6913C35.2258 23.7157 35.3355 23.7708 35.4972 23.889C35.6337 24.0775 35.6464 24.2472 35.6145 24.4752C35.5238 24.656 35.4875 24.7223 35.3213 24.827C35.0258 24.8817 34.7309 24.8745 34.4316 24.8716C34.3396 24.872 34.2476 24.8725 34.1556 24.8732C33.9061 24.8745 33.6566 24.8737 33.4071 24.8723C33.1459 24.8712 32.8847 24.8719 32.6235 24.8723C32.1848 24.8726 31.7462 24.8716 31.3075 24.8696C30.8005 24.8674 30.2935 24.8675 29.7864 24.8689C29.2986 24.8701 28.8107 24.8697 28.3228 24.8685C28.1153 24.868 27.9077 24.8682 27.7001 24.8687C27.4556 24.8694 27.2112 24.8685 26.9667 24.8666C26.8771 24.8661 26.7874 24.8661 26.6977 24.8667C26.5752 24.8673 26.4528 24.8662 26.3303 24.8646C26.2617 24.8644 26.1932 24.8642 26.1226 24.8641C25.8866 24.8159 25.7983 24.7174 25.6477 24.5339C25.5982 24.3716 25.6111 24.2298 25.6477 24.0648C25.8566 23.7264 26.0457 23.7058 26.4245 23.7048Z" fill="black"/>
<path d="M12.6423 8.51327C12.6906 8.51286 12.7388 8.51244 12.7885 8.51201C12.8409 8.51216 12.8933 8.5123 12.9474 8.51245C13.003 8.51215 13.0586 8.51186 13.1158 8.51155C13.2997 8.51073 13.4835 8.51079 13.6674 8.51092C13.7952 8.5107 13.923 8.51044 14.0507 8.51016C14.3186 8.50972 14.5864 8.50974 14.8543 8.51005C15.1976 8.51039 15.5409 8.5094 15.8842 8.50804C16.1481 8.50717 16.412 8.50712 16.6759 8.5073C16.8025 8.50727 16.929 8.50697 17.0556 8.50638C17.2326 8.50565 17.4095 8.50605 17.5865 8.50673C17.6388 8.50628 17.6911 8.50583 17.745 8.50537C18.024 8.50774 18.2099 8.52312 18.4366 8.70444C18.5731 8.89296 18.5858 9.06267 18.5539 9.29072C18.3557 9.61693 18.3557 9.61693 18.1391 9.67522C17.9862 9.68839 17.8367 9.69001 17.6832 9.688C17.6253 9.68862 17.5674 9.68924 17.5077 9.68987C17.3165 9.69142 17.1255 9.6904 16.9343 9.68921C16.8013 9.68944 16.6684 9.68978 16.5354 9.69023C16.2569 9.69074 15.9783 9.68999 15.6998 9.68835C15.3427 9.68634 14.9858 9.6875 14.6287 9.6896C14.3542 9.69088 14.0797 9.69047 13.8052 9.68956C13.6735 9.68932 13.5419 9.68961 13.4102 9.69043C13.2262 9.69133 13.0423 9.68996 12.8583 9.688C12.7767 9.68907 12.7767 9.68907 12.6934 9.69016C12.3346 9.68309 12.3346 9.68309 12.181 9.56746C12.0512 9.41948 11.99 9.30574 11.9583 9.11117C11.9916 8.91499 12.0414 8.80271 12.1634 8.64581C12.3279 8.5458 12.451 8.51382 12.6423 8.51327Z" fill="black"/>
<path d="M26.5361 8.51944C26.5917 8.51914 26.6473 8.51885 26.7046 8.51855C26.889 8.51769 27.0735 8.5173 27.258 8.51697C27.386 8.51664 27.5139 8.5163 27.6419 8.51596C27.9104 8.51534 28.179 8.515 28.4475 8.5148C28.7918 8.51448 29.136 8.51307 29.4802 8.5114C29.7446 8.51031 30.009 8.51 30.2734 8.50991C30.4003 8.50973 30.5272 8.50926 30.6541 8.50849C30.8317 8.50749 31.0092 8.5076 31.1867 8.50798C31.2392 8.50744 31.2917 8.5069 31.3458 8.50635C31.6244 8.50822 31.8143 8.52063 32.0387 8.70477C32.1625 8.89051 32.1754 9.00566 32.1887 9.22463C32.1344 9.43187 32.0302 9.5118 31.8628 9.64281C31.6722 9.68608 31.4855 9.68289 31.2906 9.68074C31.2046 9.68151 31.2046 9.68151 31.1169 9.6823C30.9276 9.68359 30.7385 9.68274 30.5492 9.68175C30.4176 9.68194 30.2859 9.68223 30.1543 9.6826C29.8785 9.68303 29.6027 9.6824 29.3269 9.68103C28.9734 9.67936 28.62 9.68032 28.2665 9.68208C27.9947 9.68314 27.7229 9.6828 27.4511 9.68204C27.3207 9.68184 27.1904 9.68208 27.0601 9.68277C26.8779 9.68351 26.6958 9.68238 26.5136 9.68074C26.4597 9.68134 26.4059 9.68193 26.3504 9.68254C26.0854 9.67814 25.9762 9.67012 25.7614 9.50143C25.6195 9.31105 25.6086 9.2223 25.6228 8.99401C25.6628 8.8158 25.7539 8.71257 25.8828 8.58751C26.0838 8.48698 26.3148 8.51971 26.5361 8.51944Z" fill="black"/>
<path d="M26.5539 28.6218C26.5968 28.6215 26.6397 28.6212 26.684 28.6209C26.8254 28.6201 26.9667 28.6202 27.1081 28.6203C27.2067 28.6201 27.3054 28.6198 27.404 28.6195C27.6105 28.6191 27.8171 28.6191 28.0236 28.6194C28.2879 28.6198 28.5521 28.6188 28.8163 28.6174C29.02 28.6165 29.2236 28.6165 29.4273 28.6167C29.5247 28.6166 29.6221 28.6163 29.7195 28.6158C29.8558 28.615 29.9922 28.6154 30.1286 28.6161C30.1685 28.6157 30.2084 28.6152 30.2496 28.6147C30.5161 28.6177 30.6975 28.6756 30.9246 28.8138C31.0649 28.9987 31.065 29.1734 31.0419 29.4001C30.9648 29.5786 30.9135 29.6684 30.7401 29.7591C30.5365 29.8217 30.3469 29.8274 30.1361 29.8266C30.0717 29.827 30.0717 29.827 30.006 29.8275C29.8647 29.8283 29.7233 29.8283 29.5819 29.8281C29.4833 29.8284 29.3846 29.8286 29.286 29.8289C29.0795 29.8293 28.8729 29.8293 28.6664 29.829C28.4022 29.8287 28.1379 29.8297 27.8737 29.831C27.6701 29.8319 27.4664 29.8319 27.2628 29.8317C27.1654 29.8318 27.068 29.8321 26.9706 29.8327C26.8342 29.8334 26.6978 29.833 26.5614 29.8323C26.5215 29.8328 26.4816 29.8332 26.4404 29.8337C26.1739 29.8308 25.9925 29.7728 25.7654 29.6346C25.6251 29.4497 25.625 29.275 25.6481 29.0483C25.7252 28.8698 25.7765 28.78 25.9499 28.6893C26.1535 28.6268 26.3431 28.6211 26.5539 28.6218Z" fill="black"/>
<path d="M13.9046 28.2693C13.9734 28.2687 13.9734 28.2687 14.0436 28.2681C14.1954 28.267 14.3472 28.2668 14.499 28.2666C14.6045 28.2663 14.71 28.2659 14.8156 28.2655C15.0369 28.2648 15.2581 28.2645 15.4794 28.2646C15.7629 28.2646 16.0463 28.263 16.3297 28.261C16.5477 28.2597 16.7657 28.2595 16.9836 28.2595C17.0881 28.2594 17.1926 28.2589 17.2971 28.258C17.4434 28.2568 17.5895 28.2571 17.7358 28.2579C17.7788 28.2572 17.8219 28.2565 17.8663 28.2559C18.1507 28.2593 18.2958 28.3185 18.4953 28.5209C18.566 28.6621 18.5586 28.7381 18.5466 28.8946C18.5441 28.9398 18.5415 28.985 18.5388 29.0316C18.4746 29.2297 18.3765 29.2886 18.2022 29.4003C18.0395 29.4233 17.9001 29.433 17.7376 29.4315C17.6917 29.4321 17.6459 29.4326 17.5986 29.4331C17.4474 29.4344 17.2963 29.434 17.1451 29.4335C17.0397 29.4338 16.9344 29.4342 16.829 29.4346C16.6084 29.4352 16.3878 29.4349 16.1672 29.4341C15.8847 29.4331 15.6023 29.4344 15.3197 29.4365C15.1023 29.4378 14.8848 29.4377 14.6673 29.4372C14.5631 29.4372 14.459 29.4376 14.3548 29.4384C14.2091 29.4395 14.0636 29.4386 13.9179 29.4373C13.8536 29.4383 13.8536 29.4383 13.7879 29.4393C13.5582 29.4351 13.4618 29.4072 13.2814 29.2601C13.1506 29.095 13.1016 29.0236 13.1016 28.814C13.2612 28.3429 13.4323 28.2687 13.9046 28.2693Z" fill="black"/>
<path d="M9.69796 8.50987C9.76715 8.50892 9.83634 8.50798 9.90763 8.50701C9.9744 8.50697 10.0412 8.50693 10.11 8.50689C10.1708 8.50672 10.2316 8.50654 10.2943 8.50636C10.4906 8.53165 10.5986 8.58682 10.7569 8.70407C10.8808 8.88982 10.8936 9.00496 10.9069 9.22394C10.8544 9.42439 10.738 9.51147 10.581 9.64212C10.3293 9.6936 10.0802 9.68675 9.82358 9.68356C9.70187 9.68243 9.58055 9.68474 9.45887 9.68735C8.89203 9.68596 8.89203 9.68596 8.70301 9.56727C8.57718 9.42295 8.53041 9.29854 8.49976 9.1108C8.53315 8.91462 8.58292 8.80235 8.70495 8.64545C9.00148 8.45432 9.35829 8.50894 9.69796 8.50987Z" fill="black"/>
<path d="M34.4389 8.50991C34.5081 8.50897 34.5773 8.50802 34.6486 8.50705C34.7153 8.50701 34.7821 8.50697 34.8509 8.50693C34.9117 8.50676 34.9726 8.50658 35.0352 8.5064C35.2299 8.53147 35.3397 8.59001 35.4979 8.70412C35.6344 8.89266 35.6341 9.06226 35.6151 9.2904C35.5444 9.48637 35.5025 9.5218 35.322 9.64216C35.0719 9.66614 34.8213 9.66395 34.5701 9.66389C34.4468 9.66415 34.3237 9.66628 34.2004 9.6685C34.1218 9.66884 34.0432 9.66908 33.9646 9.66919C33.8933 9.66967 33.8219 9.67015 33.7484 9.67065C33.5292 9.63695 33.4623 9.58074 33.3286 9.40765C33.2462 9.18112 33.2481 8.99177 33.3396 8.77007C33.6268 8.43342 34.0311 8.5088 34.4389 8.50991Z" fill="black"/>
</svg>
